<?xml version="1.0" encoding="UTF-8"?>
<!-- Generator: visioncortex VTracer -->
<svg id="svg" version="1.1" xmlns="http://www.w3.org/2000/svg" style="display: block;" viewBox="0 0 410 166"><path d="M0 0 C135.3 0 270.6 0 410 0 C410 54.78 410 109.56 410 166 C274.7 166 139.4 166 0 166 C0 111.22 0 56.44 0 0 Z " transform="translate(0,0)" style="fill: #010000;"/><path d="M0 0 C1.67542976 0.28604898 3.34385343 0.61781233 5 1 C5.00364563 1.57470032 5.00729126 2.14940063 5.01104736 2.74151611 C5.05318498 8.77761837 5.12274425 14.81298218 5.20751953 20.84863281 C5.23557058 23.09465106 5.25686317 25.34076512 5.27099609 27.58691406 C5.0615779 44.77343036 5.0615779 44.77343036 10 61 C10.32452148 61.66612305 10.64904297 62.33224609 10.98339844 63.01855469 C11.83609864 64.63433727 12.78836136 66.19658373 13.75 67.75 C14.36359375 68.75546875 14.9771875 69.7609375 15.609375 70.796875 C16.06828125 71.52390625 16.5271875 72.2509375 17 73 C19.12614593 69.52726646 19.24318318 66.79579485 19.22705078 62.76269531 C19.22682419 60.87118744 19.22682419 60.87118744 19.22659302 58.94146729 C19.21638056 57.57035158 19.20594858 56.19923749 19.1953125 54.828125 C19.19158057 53.42136842 19.18873445 52.01460923 19.18673706 50.60784912 C19.17911476 46.91213761 19.15947845 43.21658425 19.1373291 39.52093506 C19.11684036 35.74705138 19.10772888 31.97314206 19.09765625 28.19921875 C19.07623112 20.79940721 19.04211226 13.3997258 19 6 C20.875 5.375 20.875 5.375 23 5 C25.72173534 7.72173534 25.25890439 9.19409454 25.2746582 13.00341797 C25.28895622 14.89711624 25.28895622 14.89711624 25.30354309 16.82907104 C25.30328142 18.21677681 25.30234318 19.60448259 25.30078125 20.9921875 C25.30467033 22.41789881 25.30900544 23.84360896 25.31376648 25.26931763 C25.32124193 28.2671482 25.3209313 31.26486111 25.31567383 34.26269531 C25.30992698 38.07305686 25.32668603 41.8829247 25.3500185 45.69320488 C25.36489176 48.64467103 25.36560845 51.59602267 25.36250877 54.54751968 C25.36301685 55.94990122 25.36815635 57.35229006 25.37832069 58.75463486 C25.44518806 69.28614137 25.46117483 81.73221167 18 90 C12.71857618 94.79548168 7.87125271 95.68331089 0.8359375 95.35546875 C-5.57899399 94.55139332 -9.8827612 92.09237431 -14 87 C-21.57817687 74.6552597 -22.1505662 60.64042686 -22.16796875 46.49609375 C-22.17129715 45.53276627 -22.17462555 44.56943878 -22.17805481 43.57691956 C-22.18308107 41.55592318 -22.18546448 39.53491863 -22.18530273 37.51391602 C-22.18749673 34.4420806 -22.20571899 31.37060061 -22.22460938 28.29882812 C-22.22754282 26.32291788 -22.22952794 24.34700595 -22.23046875 22.37109375 C-22.23765427 21.46459579 -22.24483978 20.55809784 -22.25224304 19.62413025 C-22.23158268 13.79543949 -21.44581668 8.65039626 -20 3 C-16.125 4.75 -16.125 4.75 -15 7 C-14.91898458 8.89837 -14.90335055 10.79966723 -14.91821289 12.69970703 C-14.9247438 13.89500031 -14.93127472 15.09029358 -14.93800354 16.32180786 C-14.94943893 17.62068939 -14.96087433 18.91957092 -14.97265625 20.2578125 C-14.97960315 21.60342052 -14.98581302 22.94903253 -14.99131775 24.29464722 C-15.01575242 30.01128698 -15.05108581 35.72782053 -15.09594727 41.44433594 C-15.12289141 44.94146893 -15.13983168 48.43853894 -15.15081596 51.93575668 C-15.1599707 53.9053917 -15.18034096 55.8749644 -15.20094299 57.84451294 C-15.21880681 64.26414689 -14.94535634 69.86601081 -13 76 C-3.23108753 64.83552861 -1.91132479 52.01765514 -1.71875 37.75390625 C-1.68099532 35.59700511 -1.64323474 33.44010407 -1.60546875 31.28320312 C-1.5516057 27.90342043 -1.49940576 24.523616 -1.44775391 21.14379883 C-1.39623227 17.86792093 -1.33895703 14.59218008 -1.28125 11.31640625 C-1.26767456 10.29672256 -1.25409912 9.27703888 -1.2401123 8.22645569 C-1.22339478 7.29135666 -1.20667725 6.35625763 -1.18945312 5.39282227 C-1.17692505 4.56645767 -1.16439697 3.74009308 -1.15148926 2.88868713 C-1 1 -1 1 0 0 Z " transform="translate(43,46)" style="fill: #F0AE00;"/><path d="M0 0 C1.32 0 2.64 0 4 0 C6.96713416 3.73639116 7.17602326 6.05613955 8 11 C12.29 11.33 16.58 11.66 21 12 C21 13.65 21 15.3 21 17 C16.71 17 12.42 17 8 17 C8 19.64 8 22.28 8 25 C9.051875 24.938125 10.10375 24.87625 11.1875 24.8125 C15.18387024 25.0090428 16.86899906 25.60570516 20 28 C21.39325811 30.78651623 21.20741683 33.14142874 21.25 36.25 C21.27578125 37.36890625 21.3015625 38.4878125 21.328125 39.640625 C21 43 21 43 19.5078125 45.8125 C17.4367628 50.1906776 17.55102316 53.96733154 17.625 58.75 C17.63152588 59.66507324 17.63805176 60.58014648 17.64477539 61.52294922 C17.83416466 71.36269856 18.87397809 81.62193426 22 91 C22.12781786 93.67394964 22.04391871 96.32095857 22 99 C20.02 99.495 20.02 99.495 18 100 C13.21303637 84.50046243 11.69219583 70.19391918 12 54 C11.38584229 54.21438721 10.77168457 54.42877441 10.13891602 54.6496582 C9.33123779 54.92640381 8.52355957 55.20314941 7.69140625 55.48828125 C6.89162354 55.76454346 6.09184082 56.04080566 5.26782227 56.32543945 C2.76143358 57.07096125 0.60314159 57.25191693 -2 57 C-1.87625 58.4540625 -1.87625 58.4540625 -1.75 59.9375 C-1.73897251 65.35199684 -4.01362537 70.54067903 -7.39453125 74.7265625 C-9.74020388 76.58712035 -12.07897942 76.65426546 -15 76.546875 C-18.14614014 75.68660231 -19.29597245 73.78605734 -20.9921875 71.1171875 C-23.86922932 65.07316941 -24.31046287 59.89791389 -24.25 53.3125 C-24.26160156 52.03149414 -24.26160156 52.03149414 -24.2734375 50.72460938 C-24.27085937 49.90412109 -24.26828125 49.08363281 -24.265625 48.23828125 C-24.26336914 47.49618408 -24.26111328 46.75408691 -24.25878906 45.98950195 C-24 44 -24 44 -22 41 C-21.01 41.33 -20.02 41.66 -19 42 C-19 45.3 -19 48.6 -19 52 C-15.37 52 -11.74 52 -8 52 C-8 48.7 -8 45.4 -8 42 C-4 42 -4 42 -3 43 C-2.92820036 44.51928038 -2.91607993 46.04167482 -2.9375 47.5625 C-2.94652344 48.38878906 -2.95554687 49.21507812 -2.96484375 50.06640625 C-2.97644531 50.70449219 -2.98804688 51.34257813 -3 52 C-1.41532272 51.71572583 0.1677057 51.42225182 1.75 51.125 C2.63171875 50.96257812 3.5134375 50.80015625 4.421875 50.6328125 C6.86947744 50.03203736 8.80599857 49.22002883 11 48 C10.67 46.35 10.34 44.7 10 43 C5.61414671 42.29826347 1.44209357 41.89165625 -3 42 C-3.625 40.125 -3.625 40.125 -4 38 C-1.3381996 35.3381996 0.04249263 35.70133398 3.75 35.6875 C8.72002661 35.75320949 11.87988521 36.25325681 16 39 C15.505 35.535 15.505 35.535 15 32 C11.13276369 30.73417781 7.26848738 30.8881235 3.25 30.9375 C2.55261719 30.94201172 1.85523438 30.94652344 1.13671875 30.95117188 C-0.57555803 30.9628998 -2.28779033 30.98083347 -4 31 C-4.66 29.68 -5.32 28.36 -6 27 C-3.08235 25.0549 -1.37462715 24.54723683 2 24 C2.0544452 21.79194476 2.09299283 19.58349446 2.125 17.375 C2.14820313 16.14523438 2.17140625 14.91546875 2.1953125 13.6484375 C2.00189813 10.03545715 1.20363154 7.38343669 0 4 C0 2.68 0 1.36 0 0 Z " transform="translate(370,45)" style="fill: #F1AF00;"/><path d="M0 0 C1.32 0.33 2.64 0.66 4 1 C5.29424667 7.87181799 5.26122537 14.65164971 5.3125 21.625 C5.32708252 22.28918945 5.34166504 22.95337891 5.35668945 23.63769531 C5.39931385 25.58365386 5.41292405 27.53017965 5.42578125 29.4765625 C5.44036377 30.63236816 5.45494629 31.78817383 5.4699707 32.97900391 C4.89851012 36.65238225 3.96900849 37.82103799 1 40 C-1.73682971 40.2911521 -4.03940039 40.38322418 -6.75 40.25 C-7.44738281 40.23195312 -8.14476562 40.21390625 -8.86328125 40.1953125 C-10.57611539 40.14838554 -12.28823824 40.07664605 -14 40 C-13.97679687 40.93714844 -13.95359375 41.87429687 -13.9296875 42.83984375 C-13.22507379 85.45014758 -13.22507379 85.45014758 -20 99 C-20.99 98.67 -21.98 98.34 -23 98 C-23.33976673 88.62495498 -22.9295179 79.71461218 -21.5 70.4375 C-20.05905952 60.71949052 -19.6897689 51.1165541 -19.6875 41.3125 C-19.68427734 40.63758514 -19.68105469 39.96267029 -19.67773438 39.26730347 C-19.65517725 31.56040261 -20.05155712 24.21424217 -21.5612793 16.64819336 C-22.25909674 12.43604766 -22.1694419 8.25487428 -22 4 C-20.68 3.67 -19.36 3.34 -18 3 C-16 6 -16 6 -16 10 C-15.46890625 9.83628906 -14.9378125 9.67257813 -14.390625 9.50390625 C-11.46123236 8.88643623 -8.74177064 8.90498075 -5.75 8.9375 C-4.67234375 8.94652344 -3.5946875 8.95554687 -2.484375 8.96484375 C-1.66453125 8.97644531 -0.8446875 8.98804688 0 9 C-0.185625 7.88625 -0.37125 6.7725 -0.5625 5.625 C-1 2 -1 2 0 0 Z " transform="translate(145,45)" style="fill: #F2AF00;"/><path d="M0 0 C0.8146875 -0.00773437 1.629375 -0.01546875 2.46875 -0.0234375 C8.49652201 -0.00347799 8.49652201 -0.00347799 10.75 2.25 C10.5 4.3125 10.5 4.3125 9.75 6.25 C7.51200295 7.36899852 6.17147726 7.41477307 3.6875 7.49609375 C2.89085937 7.52896484 2.09421875 7.56183594 1.2734375 7.59570312 C-0.40871678 7.65689604 -2.09101747 7.71418863 -3.7734375 7.76757812 C-4.57007813 7.80173828 -5.36671875 7.83589844 -6.1875 7.87109375 C-6.91839844 7.8961499 -7.64929688 7.92120605 -8.40234375 7.94702148 C-10.49453512 8.10562557 -10.49453512 8.10562557 -12.25 10.25 C-12.58 11.57 -12.91 12.89 -13.25 14.25 C-5.33 14.25 2.59 14.25 10.75 14.25 C12.29458169 20.42832677 10.18067571 25.48646525 7.75 31.25 C5.3125 34.0625 5.3125 34.0625 1.75 35.25 C-0.48954415 35.33137256 -2.73179089 35.35071311 -4.97265625 35.32421875 C-6.14707275 35.31350342 -7.32148926 35.30278809 -8.53149414 35.29174805 C-9.42860107 35.27797119 -10.32570801 35.26419434 -11.25 35.25 C-11.27505615 36.1157666 -11.3001123 36.9815332 -11.32592773 37.87353516 C-11.42239008 41.15762948 -11.52151732 44.44162284 -11.62231445 47.72558594 C-11.6650104 49.1334327 -11.70671445 50.54130998 -11.74731445 51.94921875 C-12.53864288 79.30378149 -12.53864288 79.30378149 -15.3125 89.125 C-15.49876953 89.82496094 -15.68503906 90.52492188 -15.87695312 91.24609375 C-16.32332449 92.917125 -16.78484596 94.58409948 -17.25 96.25 C-18.57 95.92 -19.89 95.59 -21.25 95.25 C-20.51997951 79.76588115 -20.51997951 79.76588115 -19.25 74.25 C-17.7294267 67.31663963 -17.46661516 60.32102826 -17.25 53.25 C-17.21600098 52.14430664 -17.18200195 51.03861328 -17.14697266 49.89941406 C-17.04800151 46.12042435 -16.98787672 42.34243304 -16.9375 38.5625 C-16.90769043 37.35166748 -16.87788086 36.14083496 -16.84716797 34.89331055 C-16.79884745 27.32909364 -17.83666175 21.17918567 -20.48364258 14.07885742 C-21.32750132 10.96391916 -21.26500497 9.2910846 -20.25 6.25 C-14.37479497 0.37479497 -7.86615533 -0.07612408 0 0 Z " transform="translate(353.25,46.75)" style="fill: #F0AE00;"/><path d="M0 0 C2 0.3125 2 0.3125 4 1 C5 3 5 3 5 9 C8.96 9 12.92 9 17 9 C17.33 7.35 17.66 5.7 18 4 C19.32 4 20.64 4 22 4 C23.48925199 6.97850397 22.83524245 9.88551757 22.57421875 13.1171875 C21.97934373 21.45815856 21.80250695 29.76378064 21.8125 38.125 C21.81210724 38.8329068 21.81171448 39.5408136 21.81130981 40.27017212 C21.82009135 53.58278992 22.19567081 66.98847902 24.5625 80.12109375 C25.08695234 83.57217743 25.09541406 86.88611013 25.0625 90.375 C25.05347656 91.62023437 25.04445312 92.86546875 25.03515625 94.1484375 C25.02355469 95.08945313 25.01195312 96.03046875 25 97 C21.125 96.125 21.125 96.125 20 95 C19.29671804 90.50349855 18.89303881 85.96515196 18.4375 81.4375 C18.3689682 80.76837585 18.3004364 80.09925171 18.22982788 79.40985107 C16.93843319 66.5924857 16.64492287 53.88110558 17 41 C16.17072998 41.02102783 15.34145996 41.04205566 14.48706055 41.0637207 C13.40207275 41.08007568 12.31708496 41.09643066 11.19921875 41.11328125 C9.58406372 41.144823 9.58406372 41.144823 7.9362793 41.17700195 C5 41 5 41 1.8125 39.1875 C-1.44382796 35.25744901 -1.14678492 31.37742669 -1.1328125 26.5234375 C-1.13376923 25.79758453 -1.13472595 25.07173157 -1.13571167 24.32388306 C-1.13639134 22.79241855 -1.13455189 21.26095114 -1.13037109 19.72949219 C-1.12500431 17.37688799 -1.13033116 15.02447338 -1.13671875 12.671875 C-1.13605823 11.18489541 -1.13477762 9.69791594 -1.1328125 8.2109375 C-1.13483673 7.50367523 -1.13686096 6.79641296 -1.13894653 6.06771851 C-1.11496243 1.11496243 -1.11496243 1.11496243 0 0 Z " transform="translate(155,45)" style="fill: #EDAC00;"/><path d="M0 0 C3 1 3 1 4.25 2.625 C5.59368931 6.88001615 4.37703175 10.86890475 3 15 C2.93062938 17.22818441 2.91542916 19.45834524 2.9375 21.6875 C2.94652344 22.86699219 2.95554688 24.04648438 2.96484375 25.26171875 C2.97644531 26.16535156 2.98804688 27.06898437 3 28 C3.65357278 26.77493102 4.29748233 25.54470484 4.9375 24.3125 C5.29714844 23.62800781 5.65679687 22.94351563 6.02734375 22.23828125 C8.06178379 17.55661803 8.23218498 12.73660098 8.5625 7.6875 C8.64628906 6.43324219 8.73007813 5.17898437 8.81640625 3.88671875 C8.90728516 2.45779297 8.90728516 2.45779297 9 1 C12.84753043 1.19587428 13.99625217 1.99628366 16.7890625 4.765625 C17.74697787 5.91671115 18.69200217 7.07862635 19.625 8.25 C20.10195313 8.82363281 20.57890625 9.39726563 21.0703125 9.98828125 C28.50917998 19.05956687 28.50917998 19.05956687 28 25 C26.68 25 25.36 25 24 25 C22.40234375 23.171875 22.40234375 23.171875 20.9375 20.75 C19.07094996 17.71995059 17.17772252 14.8174689 15 12 C14.76216797 13.37671875 14.76216797 13.37671875 14.51953125 14.78125 C12.91826352 23.20338745 11.14411894 29.85588106 5 36 C5.3647923 46.14980929 11.97823609 54.33586558 18.328125 61.640625 C20.11564669 64.16320233 20.63335922 65.9590382 21 69 C17.24750512 68.88628803 15.22090943 67.60027456 12.5625 65.125 C0.81677676 52.43860195 -3.94392926 32.93336357 -4 16 C-4.62648437 16.6496875 -5.25296875 17.299375 -5.8984375 17.96875 C-6.71570313 18.8040625 -7.53296875 19.639375 -8.375 20.5 C-9.18710938 21.3353125 -9.99921875 22.170625 -10.8359375 23.03125 C-13 25 -13 25 -15 25 C-14.59280988 19.35550251 -13.33236003 16.49726684 -9.625 12.25 C-8.83351562 11.32703125 -8.04203125 10.4040625 -7.2265625 9.453125 C-5.94524791 8.04143103 -4.64248131 6.64736767 -3.28515625 5.30859375 C-1.71664894 3.71148145 -0.91041454 2.03092474 0 0 Z " transform="translate(238,75)" style="fill: #F0AE00;"/><path d="M0 0 C1.32 0.33 2.64 0.66 4 1 C4.02694851 2.95825873 4.04637218 4.91662226 4.0625 6.875 C4.07410156 7.96554688 4.08570313 9.05609375 4.09765625 10.1796875 C4 13 4 13 3 15 C2.13166855 22.49530778 3.76937769 28.09174823 6.9375 34.8125 C10.85086722 43.40298314 13.94459569 51.46194206 11 60.9375 C7.26483343 69.7802897 -0.40079099 76.12547795 -9 80 C-11.43844357 80.65199026 -13.4638038 80.8897306 -16 81 C-15.6236994 78.56067911 -15.35428604 77.31556003 -13.48120117 75.6472168 C-12.84158447 75.25187744 -12.20196777 74.85653809 -11.54296875 74.44921875 C-10.84236328 73.99740234 -10.14175781 73.54558594 -9.41992188 73.08007812 C-7.94533569 72.16023565 -6.4688032 71.24350509 -4.99023438 70.33007812 C-0.0016432 67.1032401 2.62110809 64.49626936 5 59 C5.67875341 55.73817194 5.67875341 55.73817194 5.75 52.5625 C5.80671875 51.51191406 5.8634375 50.46132812 5.921875 49.37890625 C5.94765625 48.59386719 5.9734375 47.80882812 6 47 C5.34 47 4.68 47 4 47 C3.7421875 47.59039062 3.484375 48.18078125 3.21875 48.7890625 C-0.44044832 55.42722356 -9.10311035 61.20974122 -16 64 C-18.80078125 63.65625 -18.80078125 63.65625 -21 63 C-19.4897095 58.86271935 -16.99715165 57.48760527 -13.3125 55.25 C-7.00994581 51.16697511 -1.05774781 47.25094874 0.828125 39.671875 C1.02383426 35.49081347 0.2019296 33.13783572 -1.4375 29.3125 C-4.80441517 20.4437821 -5.49542184 13.17021632 -2 4.25 C-1.35414056 2.82372707 -0.69522807 1.40287092 0 0 Z " transform="translate(275,49)" style="fill: #EEAD00;"/><path d="M0 0 C3.37204446 1.68602223 4.36155891 5.46510261 5.9375 8.75 C6.6321999 10.18322132 7.3287761 11.61553488 8.02734375 13.046875 C8.35992187 13.72886963 8.6925 14.41086426 9.03515625 15.11352539 C9.86422612 16.73453321 10.79624929 18.3021437 11.74609375 19.85546875 C13 22 13 22 13.125 24.5625 C11.74764064 27.54677861 10.01137557 28.8036971 7.09765625 30.26953125 C3.34958977 31.57472386 -0.10617969 31.70668245 -4 31 C-9.37339056 28.31330472 -9.37339056 28.31330472 -10.85546875 25.20703125 C-11.07223799 21.89690643 -9.59145615 20.19213107 -7.8125 17.4375 C-4.35711715 11.81904749 -1.98822112 6.27339336 0 0 Z " transform="translate(45,105)" style="fill: #080600;"/><path d="M0 0 C1.32 0 2.64 0 4 0 C5.75712532 2.81140051 6.01184478 4.35682385 6.125 7.765625 C6.53752607 11.34220572 7.46170586 12.89447389 10.16015625 15.265625 C11.4440077 16.28217199 12.74552334 17.27675039 14.0625 18.25 C15.37422052 19.2443071 16.67806716 20.24911311 17.97265625 21.265625 C18.55281494 21.69649414 19.13297363 22.12736328 19.73071289 22.57128906 C21 24 21 24 21 28 C14.7467569 27.436481 12.03022075 24.75555704 7.5625 20.6171875 C5.09701033 18.74728959 5.09701033 18.74728959 2.10546875 18.97265625 C-1.66591558 20.2202966 -4.55548041 22.19261728 -7.6875 24.5625 C-13.6198786 29 -13.6198786 29 -17 29 C-16.49529676 24.78682515 -15.37914347 22.89724793 -12.3125 20 C-11.59449219 19.30519531 -10.87648437 18.61039063 -10.13671875 17.89453125 C-8.35408921 16.31395478 -6.58771283 15.02020624 -4.625 13.6875 C-0.74541178 9.71554063 -0.54671469 5.38231186 0 0 Z " transform="translate(242,47)" style="fill: #F1AF00;"/><path d="M0 0 C2.64590014 -0.02684679 5.29153096 -0.04676357 7.9375 -0.0625 C8.69224609 -0.07087891 9.44699219 -0.07925781 10.22460938 -0.08789062 C12.14994313 -0.09652441 14.07535581 -0.05224333 16 0 C17 1 17 1 17.1875 3.9375 C17 7 17 7 15 9 C12.41935871 9.14497985 9.95056116 9.18677545 7.375 9.125 C6.66859375 9.11597656 5.9621875 9.10695313 5.234375 9.09765625 C3.48943902 9.07407603 1.74467705 9.03820461 0 9 C0 6.03 0 3.06 0 0 Z " transform="translate(341,67)" style="fill: #0F0B00;"/><path d="M0 0 C2.08268593 -0.08126087 4.16628658 -0.13930839 6.25 -0.1875 C7.99023438 -0.23970703 7.99023438 -0.23970703 9.765625 -0.29296875 C13.22268407 0.02017066 14.51565563 0.65709108 17 3 C16.75 5.375 16.75 5.375 16 8 C13.00543346 9.96007991 10.27555355 10.34666682 6.75 10.625 C5.85796875 10.69976562 4.9659375 10.77453125 4.046875 10.8515625 C3.37140625 10.90054688 2.6959375 10.94953125 2 11 C1.93941406 10.37351562 1.87882812 9.74703125 1.81640625 9.1015625 C1.73261719 8.28429687 1.64882813 7.46703125 1.5625 6.625 C1.48128906 5.81289062 1.40007812 5.00078125 1.31640625 4.1640625 C1.10909886 1.95727195 1.10909886 1.95727195 0 0 Z " transform="translate(365,86)" style="fill: #130E00;"/><path d="M0 0 C3.96 0 7.92 0 12 0 C12.49230769 7.26153846 12.49230769 7.26153846 10 11 C9.34 11.66 8.68 12.32 8 13 C4.69866765 12.7323244 3.37496702 12.4396165 1.1875 9.875 C-0.24140574 6.41554399 -0.21814153 3.70840602 0 0 Z " transform="translate(351,102)" style="fill: #120D00;"/><path d="M0 0 C0 2.31 0 4.62 0 7 C-4.95 7.33 -9.9 7.66 -15 8 C-15 5.69 -15 3.38 -15 1 C-9.91913204 0.15318867 -5.15171623 -0.09038099 0 0 Z " transform="translate(145,60)" style="fill: #120D00;"/><path d="M0 0 C-0.33 2.31 -0.66 4.62 -1 7 C-5.29 7 -9.58 7 -14 7 C-14 5.02 -14 3.04 -14 1 C-12.41693353 0.83081732 -10.83353281 0.66476064 -9.25 0.5 C-8.36828125 0.4071875 -7.4865625 0.314375 -6.578125 0.21875 C-4 0 -4 0 0 0 Z " transform="translate(145,73)" style="fill: #030200;"/><path d="M0 0 C3.96 0 7.92 0 12 0 C12 2.31 12 4.62 12 7 C10.37536158 7.05395478 8.75021459 7.09277195 7.125 7.125 C6.22007812 7.14820312 5.31515625 7.17140625 4.3828125 7.1953125 C2 7 2 7 0 5 C0 3.35 0 1.7 0 0 Z " transform="translate(159,73)" style="fill: #060400;"/><path d="M0 0 C3.96 0 7.92 0 12 0 C12 1.98 12 3.96 12 6 C8.04 6 4.08 6 0 6 C0 4.02 0 2.04 0 0 Z " transform="translate(159,60)" style="fill: #0E0A00;"/></svg>