<?xml version="1.0" encoding="UTF-8"?>
<!-- Generator: visioncortex VTracer -->
<svg id="svg" version="1.1" xmlns="http://www.w3.org/2000/svg" style="display: block;" viewBox="0 0 538 218"><path d="M0 0 C177.54 0 355.08 0 538 0 C538 71.94 538 143.88 538 218 C360.46 218 182.92 218 0 218 C0 146.06 0 74.12 0 0 Z " transform="translate(0,0)" style="fill: #000000;"/><path d="M0 0 C1.38832031 -0.00386719 1.38832031 -0.00386719 2.8046875 -0.0078125 C3.76375 -0.00007813 4.7228125 0.00765625 5.7109375 0.015625 C6.67773438 0.00789063 7.64453125 0.00015625 8.640625 -0.0078125 C9.56359375 -0.00523438 10.4865625 -0.00265625 11.4375 0 C12.28135254 0.00225586 13.12520508 0.00451172 13.99462891 0.00683594 C16.0859375 0.265625 16.0859375 0.265625 18.0859375 2.265625 C17.50901442 8.84254808 17.50901442 8.84254808 16.0859375 10.265625 C14.5972189 10.35231932 13.1044925 10.37265994 11.61328125 10.36328125 C10.71416016 10.36005859 9.81503906 10.35683594 8.88867188 10.35351562 C7.94314453 10.34513672 6.99761719 10.33675781 6.0234375 10.328125 C5.07404297 10.32361328 4.12464844 10.31910156 3.14648438 10.31445312 C0.79290685 10.3026261 -1.56054727 10.28614525 -3.9140625 10.265625 C-4.9040625 12.245625 -5.8940625 14.225625 -6.9140625 16.265625 C-5.9240625 15.935625 -4.9340625 15.605625 -3.9140625 15.265625 C6.36057218 14.28171179 6.36057218 14.28171179 10.7109375 17.203125 C13.0859375 19.265625 13.0859375 19.265625 14.0859375 20.265625 C14.11773538 23.30913668 14.01741183 26.34067725 13.92578125 29.3828125 C13.85234375 32.46523437 13.85234375 32.46523437 16.0859375 35.265625 C16.69268797 41.33312969 15.89399575 45.35378175 12.0859375 50.265625 C6.4023932 56.60739715 6.4023932 56.60739715 3.0859375 58.265625 C3.39464872 60.05794837 3.70802814 61.84946821 4.0234375 63.640625 C4.19746094 64.63835937 4.37148438 65.63609375 4.55078125 66.6640625 C4.96305812 69.23472156 4.96305812 69.23472156 6.0859375 71.265625 C8.40750347 71.67291728 10.7428162 72.01001177 13.0859375 72.265625 C13.07022705 71.33496216 13.07022705 71.33496216 13.05419922 70.38549805 C13.01262864 67.57474823 12.98660817 64.7640631 12.9609375 61.953125 C12.94417969 60.97666016 12.92742187 60.00019531 12.91015625 58.99414062 C12.90048828 57.58745117 12.90048828 57.58745117 12.890625 56.15234375 C12.87491455 54.85623169 12.87491455 54.85623169 12.85888672 53.53393555 C13.0859375 51.265625 13.0859375 51.265625 15.0859375 48.265625 C16.9609375 48.515625 16.9609375 48.515625 19.0859375 49.265625 C20.93406598 52.17270291 21.32732226 54.40315308 21.28125 57.8125 C21.27480469 58.65683594 21.26835937 59.50117187 21.26171875 60.37109375 C21.24496094 61.24378906 21.22820312 62.11648437 21.2109375 63.015625 C21.20191406 63.90378906 21.19289063 64.79195313 21.18359375 65.70703125 C21.16008327 67.89350558 21.12722249 70.07942594 21.0859375 72.265625 C23.4290588 72.01001177 25.76437153 71.67291728 28.0859375 71.265625 C29.42357813 68.59034374 29.38535229 66.24574817 29.5859375 63.265625 C29.97482639 57.48784722 29.97482639 57.48784722 31.0859375 55.265625 C29.91611328 54.92724609 29.91611328 54.92724609 28.72265625 54.58203125 C26.0859375 53.265625 26.0859375 53.265625 24.79296875 50.98046875 C23.85962007 48.08260452 22.93632462 45.18907566 22.0859375 42.265625 C21.74369141 41.19441406 21.74369141 41.19441406 21.39453125 40.1015625 C18.55462529 29.81435069 18.93817102 16.40842811 22.0859375 6.265625 C22.7459375 5.605625 23.4059375 4.945625 24.0859375 4.265625 C26.1484375 4.515625 26.1484375 4.515625 28.0859375 5.265625 C29.36268234 7.81911469 29.2187276 9.66445014 29.2109375 12.515625 C29.21480469 13.91554688 29.21480469 13.91554688 29.21875 15.34375 C29.0859375 18.265625 29.0859375 18.265625 28.0859375 24.265625 C35.0159375 24.760625 35.0159375 24.760625 42.0859375 25.265625 C42.0859375 18.335625 42.0859375 11.405625 42.0859375 4.265625 C43.4059375 4.595625 44.7259375 4.925625 46.0859375 5.265625 C49.32904733 10.82900853 48.42043214 17.63440195 48.40161133 23.87524414 C48.39846185 26.06122202 48.42189792 28.24583077 48.44726562 30.43164062 C48.48677191 39.01112933 48.43451091 46.21208877 42.7109375 53.140625 C40.19448261 55.17775515 38.15651066 56.30058772 35.0859375 57.265625 C35.4365625 57.884375 35.7871875 58.503125 36.1484375 59.140625 C37.90822629 65.00658764 37.07920216 70.41153096 34.2109375 75.765625 C32.0859375 78.265625 32.0859375 78.265625 29.0859375 80.265625 C26.75394362 80.34467564 24.41761128 80.35361269 22.0859375 80.265625 C22.81946269 83.4963448 22.81946269 83.4963448 25.8359375 85.078125 C35.17654933 91.36507527 38.89129555 102.05375054 41.59375 112.60546875 C42.3267705 116.56727003 42.28357731 120.24694893 42.0859375 124.265625 C40.4359375 124.595625 38.7859375 124.925625 37.0859375 125.265625 C36.78300781 124.24984375 36.48007812 123.2340625 36.16796875 122.1875 C32.15230328 106.25692168 32.15230328 106.25692168 23.0859375 93.265625 C22.4259375 93.265625 21.7659375 93.265625 21.0859375 93.265625 C21.04835327 94.92331909 21.04835327 94.92331909 21.01000977 96.61450195 C20.91587241 100.71276544 20.81566709 104.81086194 20.71362305 108.90893555 C20.67029816 110.68298437 20.62862131 112.45707423 20.58862305 114.23120117 C20.5308613 116.78056205 20.46718388 119.3297168 20.40234375 121.87890625 C20.38563126 122.67275223 20.36891876 123.46659821 20.35169983 124.28450012 C20.26476032 127.51245577 20.11343384 130.18313599 19.0859375 133.265625 C17.7659375 133.265625 16.4459375 133.265625 15.0859375 133.265625 C13.91931798 129.10157736 13.96017687 125.0758182 13.98828125 120.78125 C13.9896962 119.96565613 13.99111115 119.15006226 13.99256897 118.30975342 C13.99815447 115.71167288 14.01070429 113.11367937 14.0234375 110.515625 C14.02845438 108.75130333 14.03301696 106.98698031 14.03710938 105.22265625 C14.04811915 100.90361244 14.06537381 96.58463346 14.0859375 92.265625 C12.96469482 92.88405273 11.84345215 93.50248047 10.68823242 94.13964844 C10.05753342 94.48751404 9.42683441 94.83537964 8.77702332 95.19378662 C2.32669862 99.28210994 0.99424405 109.76049642 -0.57104492 116.73144531 C-1.34151509 120.15892612 -2.13905328 123.21604969 -3.9140625 126.265625 C-4.9040625 126.265625 -5.8940625 126.265625 -6.9140625 126.265625 C-9.74020174 120.61334653 -8.37142866 111.92599153 -6.7265625 106.015625 C-3.69787629 97.27082678 0.50469916 89.68029977 8.8359375 85.140625 C12.34470526 83.59550452 12.34470526 83.59550452 13.0859375 80.265625 C12.2196875 80.348125 11.3534375 80.430625 10.4609375 80.515625 C6.18234614 80.19869231 4.3767041 78.98408437 1.0859375 76.265625 C-2.39927461 72.02685351 -3.47822265 68.71362314 -3.9140625 63.265625 C-4.8215625 63.760625 -5.7290625 64.255625 -6.6640625 64.765625 C-9.9140625 66.265625 -9.9140625 66.265625 -13.9140625 66.265625 C-13.63939735 62.88198408 -13.28433832 61.59164993 -10.69140625 59.30859375 C-9.75425781 58.69628906 -8.81710937 58.08398438 -7.8515625 57.453125 C-1.63645058 53.18023556 3.87828694 48.57710083 8.0859375 42.265625 C8.7459375 42.265625 9.4059375 42.265625 10.0859375 42.265625 C9.7559375 41.275625 9.4259375 40.285625 9.0859375 39.265625 C5.91194982 40.55873109 4.03955456 42.33822419 1.68359375 44.7734375 C-4.30451741 50.36624548 -11.84435738 55.42112097 -19.9140625 57.265625 C-22.70703125 56.859375 -22.70703125 56.859375 -24.9140625 56.265625 C-23.43252188 52.39341657 -21.44090377 51.0796287 -17.9140625 49.015625 C-11.04049259 44.81912969 -4.51709843 40.08416232 1.0859375 34.265625 C-2.06633953 33.90536477 -3.47594548 33.93059434 -6.0390625 35.890625 C-6.9878125 36.674375 -7.9365625 37.458125 -8.9140625 38.265625 C-10.72244173 39.41020339 -12.55879595 40.51122239 -14.4140625 41.578125 C-15.331875 42.11050781 -16.2496875 42.64289063 -17.1953125 43.19140625 C-20.2936625 44.41561063 -21.77841554 44.2369939 -24.9140625 43.265625 C-24.76953125 41.51171875 -24.76953125 41.51171875 -23.9140625 39.265625 C-21.40234375 37.30078125 -21.40234375 37.30078125 -18.2265625 35.328125 C-13.83122655 32.52681695 -9.841349 29.67616328 -5.9140625 26.265625 C-3.26947871 24.94333311 -1.23644949 25.16885306 1.7109375 25.203125 C3.21527344 25.21666016 3.21527344 25.21666016 4.75 25.23046875 C5.52085937 25.24207031 6.29171875 25.25367187 7.0859375 25.265625 C7.0859375 24.605625 7.0859375 23.945625 7.0859375 23.265625 C0.8205703 22.08717841 0.8205703 22.08717841 -4.9140625 24.265625 C-7.4140625 24.765625 -7.4140625 24.765625 -9.9140625 24.265625 C-13.22495154 20.86525247 -14.22494994 17.89250046 -14.4765625 13.265625 C-14.33306758 9.73671296 -13.86720117 7.54853701 -11.6640625 4.765625 C-7.78951056 1.24330506 -5.23384952 0.01395427 0 0 Z " transform="translate(464.9140625,47.734375)" style="fill: #F2B000;"/><path d="M0 0 C2.20914 3.31371 2.22481553 4.3446021 2.125 8.1875 C2.10695313 9.08855469 2.08890625 9.98960938 2.0703125 10.91796875 C2.04710937 11.60503906 2.02390625 12.29210938 2 13 C2.60996826 12.98428955 3.21993652 12.9685791 3.84838867 12.95239258 C6.6279971 12.88980187 9.40745692 12.85093378 12.1875 12.8125 C13.62706055 12.77479492 13.62706055 12.77479492 15.09570312 12.73632812 C23.91791764 12.64474804 23.91791764 12.64474804 28 16 C29 17 29 17 29.05004883 19.89453125 C29.01935303 21.18746094 28.98865723 22.48039062 28.95703125 23.8125 C28.93116654 25.27975895 28.90690747 26.74704685 28.8840332 28.21435547 C28.8715152 28.99405701 28.85899719 29.77375854 28.84609985 30.5770874 C28.65809429 44.13432079 29.10196616 57.41898408 30.8125 70.875 C30.93692978 71.87370117 30.93692978 71.87370117 31.06387329 72.89257812 C32.09613348 81.01852225 33.54422042 88.97798327 35.39624023 96.95654297 C36.29917406 101.50808887 37.13855155 106.7228969 35 111 C33.125 110.875 33.125 110.875 31 110 C28.56938951 104.41616509 27.95649387 98.29052856 27.0625 92.3125 C26.89137695 91.18215332 26.72025391 90.05180664 26.54394531 88.88720703 C25.28935894 80.40064282 24.21255399 71.8993875 23.25 63.375 C23.12246338 62.25649658 22.99492676 61.13799316 22.86352539 59.9855957 C22.74871826 58.9255835 22.63391113 57.86557129 22.515625 56.7734375 C22.41540039 55.84966309 22.31517578 54.92588867 22.21191406 53.97412109 C21.95187959 50.32465112 22 46.65872232 22 43 C15.4 42.67 8.8 42.34 2 42 C2 42.66 2 43.32 2 44 C2.556875 44.15855469 3.11375 44.31710938 3.6875 44.48046875 C10.427671 46.54123049 16.97924606 48.9688691 21 55 C21 56.32 21 57.64 21 59 C16.44684052 58.38188466 12.71540233 56.53234107 8.6875 54.4375 C8.04232422 54.10814453 7.39714844 53.77878906 6.73242188 53.43945312 C5.15214772 52.63175745 3.57567895 51.81662387 2 51 C2 52.65 2 54.3 2 56 C4.97 56 7.94 56 11 56 C11.38218767 57.65614657 11.71395102 59.32457024 12 61 C11 62 11 62 8.93359375 62.09765625 C5.46679688 62.04882812 5.46679688 62.04882812 2 62 C2 66.29 2 70.58 2 75 C5.05989583 74.96744792 8.11979167 74.93489583 11.1796875 74.90234375 C14 75 14 75 16 76 C16 71.71 16 67.42 16 63 C17.98 62.505 17.98 62.505 20 62 C23.01656363 66.52484544 22.54990926 70.6930444 22 76 C19.01473363 88.36753212 19.01473363 88.36753212 15 91 C11.86328125 91.29296875 11.86328125 91.29296875 8.3125 91.1875 C6.54326172 91.14689453 6.54326172 91.14689453 4.73828125 91.10546875 C3.83464844 91.07066406 2.93101562 91.03585938 2 91 C1.67 93.64 1.34 96.28 1 99 C-0.98 99.495 -0.98 99.495 -3 100 C-4.35439668 97.29120665 -4.06501451 94.99066732 -4 92 C-6.08778312 92.56720119 -8.17012831 93.15444203 -10.25 93.75 C-11.99023438 94.23726562 -11.99023438 94.23726562 -13.765625 94.734375 C-17.77284932 96.3024193 -19.96141023 98.08322043 -22.01171875 101.8671875 C-23.99469056 107.75879161 -24.42773668 113.41142124 -24.75 119.6015625 C-25.06642482 123.90296234 -25.92180698 127.830987 -27 132 C-28.32 132 -29.64 132 -31 132 C-34.63381508 124.73236983 -31.8987113 113.05346224 -30.25 105.4375 C-30.01470581 104.31408203 -30.01470581 104.31408203 -29.7746582 103.16796875 C-28.43347562 97.44558973 -26.49246374 92.86317834 -21.6328125 89.23046875 C-18.73754811 87.87734074 -15.98391803 87.04882269 -12.875 86.3125 C-11.84117187 86.06113281 -10.80734375 85.80976563 -9.7421875 85.55078125 C-7 85 -7 85 -4 85 C-4.495 84.01 -4.495 84.01 -5 83 C-12.4884986 82.83147532 -12.4884986 82.83147532 -19.875 83.875 C-20.90625 83.91625 -21.9375 83.9575 -23 84 C-25.21763873 81.93356391 -26.46857132 80.50189448 -28 78 C-28.598125 77.030625 -29.19625 76.06125 -29.8125 75.0625 C-31.21753231 71.43899563 -31.43642037 68.85504658 -31 65 C-29.5 63.0625 -29.5 63.0625 -28 62 C-24.94998169 65.66002197 -21 71.07851471 -21 76 C-15.72 76 -10.44 76 -5 76 C-5 71.38 -5 66.76 -5 62 C-8.155625 62.309375 -8.155625 62.309375 -11.375 62.625 C-14.9609375 62.9765625 -14.9609375 62.9765625 -18 63 C-20 61 -20 61 -20 59 C-19 57 -19 57 -16.4375 55.75 C-12.45602828 54.88131526 -9.06570974 54.85980311 -5 55 C-5 53.35 -5 51.7 -5 50 C-11.47399834 52.53564935 -17.59776542 55.03130211 -23.28125 59.08203125 C-25 60 -25 60 -29 60 C-28.72533846 56.7040615 -28.36529967 55.33553451 -25.890625 53.0625 C-22.71260874 50.79494246 -19.42735659 48.97457388 -15.9375 47.25 C-15.32583984 46.93417969 -14.71417969 46.61835937 -14.08398438 46.29296875 C-10.71869981 44.61214554 -8.84710026 44 -5 44 C-5 43.34 -5 42.68 -5 42 C-6.2065625 42.144375 -7.413125 42.28875 -8.65625 42.4375 C-10.27080556 42.62523902 -11.88539049 42.81272554 -13.5 43 C-14.68722656 43.14308594 -14.68722656 43.14308594 -15.8984375 43.2890625 C-20.96757879 43.87076724 -25.8972786 44.25372648 -31 44 C-33.0625 42.1875 -33.0625 42.1875 -34 40 C-33.67 39.01 -33.34 38.02 -33 37 C-23.62087413 36.20177652 -14.41213252 35.87126263 -5 36 C-5 34.35 -5 32.7 -5 31 C-14.24 31.33 -23.48 31.66 -33 32 C-33 26 -33 26 -32 25 C-30.00035018 24.91241997 -27.9976389 24.89303424 -25.99609375 24.90234375 C-24.78115234 24.90556641 -23.56621094 24.90878906 -22.31445312 24.91210938 C-21.03505859 24.92048828 -19.75566406 24.92886719 -18.4375 24.9375 C-17.15423828 24.94201172 -15.87097656 24.94652344 -14.54882812 24.95117188 C-11.36583978 24.96300455 -8.18294238 24.97948932 -5 25 C-5 23.35 -5 21.7 -5 20 C-5.87140625 20.0721875 -6.7428125 20.144375 -7.640625 20.21875 C-29.20224719 21.8988764 -29.20224719 21.8988764 -33 20 C-33.04254356 18.00045254 -33.04080783 15.99958364 -33 14 C-32 13 -32 13 -29.49975586 12.88647461 C-28.41573486 12.89171143 -27.33171387 12.89694824 -26.21484375 12.90234375 C-24.46010742 12.90717773 -24.46010742 12.90717773 -22.66992188 12.91210938 C-20.82237305 12.92467773 -20.82237305 12.92467773 -18.9375 12.9375 C-17.08415039 12.94426758 -17.08415039 12.94426758 -15.19335938 12.95117188 C-12.12885883 12.96300392 -9.06445279 12.97948827 -6 13 C-6.01522705 12.3800415 -6.0304541 11.76008301 -6.04614258 11.12133789 C-6.05798584 10.30914795 -6.0698291 9.49695801 -6.08203125 8.66015625 C-6.0972583 7.85457275 -6.11248535 7.04898926 -6.12817383 6.21899414 C-6 4 -6 4 -4.6875 1.4375 C-3 0 -3 0 0 0 Z " transform="translate(340,45)" style="fill: #F1AF00;"/><path d="M0 0 C4.27638694 0.4751541 6.23351492 2.87883735 9 6 C12.08295605 10.17977696 12.43234714 13.34714022 12.4375 18.5 C12.45683594 19.7890625 12.47617187 21.078125 12.49609375 22.40625 C12 26 12 26 9.95703125 28.54296875 C7.68051913 30.91213032 7.68051913 30.91213032 7.828125 34.33203125 C7.96734375 35.48058594 8.1065625 36.62914062 8.25 37.8125 C8.4975 39.854375 8.745 41.89625 9 44 C13.62 44 18.24 44 23 44 C22.98428955 42.36587158 22.98428955 42.36587158 22.96826172 40.69873047 C22.93193977 36.63968213 22.90905527 32.58064805 22.89013672 28.52148438 C22.88010687 26.76787903 22.86647971 25.0142903 22.84912109 23.26074219 C22.8247397 20.73368215 22.8134866 18.2068441 22.8046875 15.6796875 C22.79436493 14.90132538 22.78404236 14.12296326 22.77340698 13.3210144 C22.7724878 8.81634138 23.29348952 5.24560912 25 1 C28.875 1.875 28.875 1.875 30 3 C30.08726223 4.78071246 30.10699041 6.5648314 30.09765625 8.34765625 C30.09443359 9.42724609 30.09121094 10.50683594 30.08789062 11.61914062 C30.07532227 13.32360352 30.07532227 13.32360352 30.0625 15.0625 C30.05798828 16.20267578 30.05347656 17.34285156 30.04882812 18.51757812 C30.03699747 21.34510351 30.0205141 24.1725264 30 27 C33.48809191 26.22969878 33.48809191 26.22969878 37 25 C37.9300889 22.2097333 38.18698769 20.23470458 38.31640625 17.33203125 C38.37924805 15.99301758 38.37924805 15.99301758 38.44335938 14.62695312 C38.48267578 13.69818359 38.52199219 12.76941406 38.5625 11.8125 C38.62727539 10.40194336 38.62727539 10.40194336 38.69335938 8.96289062 C38.79938665 6.64207146 38.90145029 4.32114675 39 2 C41.375 2.25 41.375 2.25 44 3 C47.89437353 7.88566861 46.49649426 16.10188741 46 22 C44.75820828 26.85705726 43.17410096 31.91773563 39 35 C36.51953125 35.29296875 36.51953125 35.29296875 33.8125 35.1875 C32.91144531 35.16042969 32.01039062 35.13335937 31.08203125 35.10546875 C30.39496094 35.07066406 29.70789063 35.03585938 29 35 C29 37.64 29 40.28 29 43 C30.27617188 42.98839844 31.55234375 42.97679687 32.8671875 42.96484375 C34.53645687 42.95546583 36.20572783 42.94636563 37.875 42.9375 C38.71675781 42.92912109 39.55851562 42.92074219 40.42578125 42.91210938 C41.23144531 42.90888672 42.03710938 42.90566406 42.8671875 42.90234375 C43.61081543 42.89710693 44.35444336 42.89187012 45.12060547 42.88647461 C47 43 47 43 49 44 C48.73593684 47.25677898 48.43253722 48.61989153 45.9375 50.8125 C40.26560781 53.10539259 34.85212116 52.03223759 29 51 C29.144375 52.0621875 29.28875 53.124375 29.4375 54.21875 C29.62526946 55.6457979 29.81275419 57.07288329 30 58.5 C30.14308594 59.54414062 30.14308594 59.54414062 30.2890625 60.609375 C30.9161622 65.44700129 31.08789528 70.12181196 31 75 C31.66 75 32.32 75 33 75 C33.2475 74.29875 33.495 73.5975 33.75 72.875 C35 70 35 70 37 67.0625 C38.95659279 64.06646729 40.02194394 61.42319621 41 58 C43.36810318 58.94724127 44.75207953 59.65291134 46.25 61.75 C47.19251213 64.57753638 47.1345485 67.03993304 47 70 C46.34 70 45.68 70 45 70 C44.63648437 70.84498047 44.63648437 70.84498047 44.265625 71.70703125 C42.76172976 74.43168097 40.85657306 76.40046876 38.75 78.6875 C35.95238537 82.05620346 35.95238537 82.05620346 34.7109375 86.125 C35.20464705 88.58423247 36.02428714 90.68616666 37 93 C37.4021875 94.1240625 37.804375 95.248125 38.21875 96.40625 C41.15542138 104.43863103 44.9036144 111.68819267 49.36328125 118.9765625 C50.87376587 121.76681333 51.59976729 123.87934497 52 127 C50.35 127.33 48.7 127.66 47 128 C39.33010198 118.60437493 33.28472145 107.70182018 30 96 C27.25935663 98.74064337 26.35733832 101.98851921 25.0625 105.5625 C24.79743652 106.28179687 24.53237305 107.00109375 24.25927734 107.7421875 C22.40707022 112.79676624 20.64742032 117.87469234 19 123 C16.525 123.495 16.525 123.495 14 124 C13.83951153 119.76731127 14.26409768 116.45524682 15.609375 112.4453125 C15.95226563 111.41792969 16.29515625 110.39054687 16.6484375 109.33203125 C17.01195312 108.27371094 17.37546875 107.21539062 17.75 106.125 C18.09804688 105.07441406 18.44609375 104.02382812 18.8046875 102.94140625 C20.37423714 98.29670195 21.97948368 93.84875946 24.27734375 89.51171875 C26.87475652 84.21676619 25.84867552 80.54602655 24 75 C23.93197033 73.27204648 23.91504355 71.54164635 23.9375 69.8125 C23.94652344 68.91144531 23.95554688 68.01039062 23.96484375 67.08203125 C23.97644531 66.39496094 23.98804688 65.70789063 24 65 C23.18015625 65.34933594 22.3603125 65.69867188 21.515625 66.05859375 C20.43796875 66.51363281 19.3603125 66.96867187 18.25 67.4375 C17.18265625 67.88996094 16.1153125 68.34242187 15.015625 68.80859375 C12.64692563 69.7444141 10.46348943 70.42131239 8 71 C8.02465332 71.73138184 8.04930664 72.46276367 8.07470703 73.21630859 C8.21572484 80.63574118 7.47451462 87.39064098 5.875 94.625 C5.65344238 95.65463867 5.43188477 96.68427734 5.20361328 97.74511719 C3.73001904 104.34919185 1.9946904 110.82406159 -0.125 117.25 C-0.36621582 117.9817041 -0.60743164 118.7134082 -0.85595703 119.46728516 C-2.12120394 123.09524877 -3.46594389 126.09108352 -6 129 C-7.32 128.67 -8.64 128.34 -10 128 C-9.69200836 122.25082263 -8.53467822 117.14707288 -6.75 111.6875 C-4.66961023 105.30158113 -2.839473 98.88547102 -1.1875 92.375 C-0.96868164 91.53412842 -0.74986328 90.69325684 -0.52441406 89.8269043 C0.56840973 85.45076974 1.25769177 81.55010037 1 77 C0.50371094 77.43570313 0.00742187 77.87140625 -0.50390625 78.3203125 C-1.92373879 79.56502338 -3.34714148 80.80566955 -4.7734375 82.04296875 C-6.17339664 83.27345916 -7.55655214 84.52361334 -8.9140625 85.80078125 C-13.37801653 89.92059785 -13.37801653 89.92059785 -16.9375 90.375 C-17.9584375 90.189375 -17.9584375 90.189375 -19 90 C-19.33 89.01 -19.66 88.02 -20 87 C-15.3639685 78.78158052 -7.24613087 71.46551273 1 67 C1.66 67 2.32 67 3 67 C3 62.05 3 57.1 3 52 C0.8653125 52.2475 0.8653125 52.2475 -1.3125 52.5 C-6.85829226 53.05457923 -12.43049664 53.34367171 -18 53 C-19 52 -19 52 -19.1875 49.5625 C-19 47 -19 47 -17 45 C-15.02880859 44.77294922 -15.02880859 44.77294922 -12.6484375 44.8046875 C-11.79765625 44.81113281 -10.946875 44.81757812 -10.0703125 44.82421875 C-9.18085937 44.84097656 -8.29140625 44.85773438 -7.375 44.875 C-6.02921875 44.88853516 -6.02921875 44.88853516 -4.65625 44.90234375 C-2.43738678 44.92594868 -0.2186603 44.96182038 2 45 C1.34 42.03 0.68 39.06 0 36 C-5.94 36 -11.88 36 -18 36 C-18.33 34.68 -18.66 33.36 -19 32 C-14.56178733 29.58478659 -10.19937025 28.11208899 -5.3125 26.9375 C-1.48160284 26.0104899 1.66357846 25.22428102 5 23 C5.9081945 16.64263849 4.28159205 12.87584855 1.09375 7.39453125 C-0.12486405 4.72663691 -0.20595175 2.89877085 0 0 Z " transform="translate(42,47)" style="fill: #F1AF00;"/><path d="M0 0 C4.87019995 0.42721052 9.34054947 1.81174685 13.5625 4.3125 C15.37374055 7.22335164 15.81436321 9.44634383 15.82128906 12.84643555 C15.82759338 13.73803879 15.83389771 14.62964203 15.84039307 15.54826355 C15.8363446 16.50557877 15.83229614 17.46289398 15.828125 18.44921875 C15.83099518 19.94023857 15.83099518 19.94023857 15.83392334 21.46138 C15.83528384 23.56532036 15.83159683 25.66926915 15.82324219 27.77319336 C15.81259742 30.97073611 15.82311287 34.16770975 15.8359375 37.36523438 C15.83461478 39.41406373 15.83205005 41.46289273 15.828125 43.51171875 C15.83217346 44.45891281 15.83622192 45.40610687 15.84039307 46.38200378 C15.7378752 61.1371248 15.7378752 61.1371248 11.0625 65.8125 C5.6790694 69.04255836 0.76833372 68.88922015 -5.4375 68.3125 C-11.31233972 65.58489585 -14.29820442 61.37639133 -16.53125 55.37109375 C-17.97011454 50.06719415 -17.73351613 44.64261253 -17.6875 39.1875 C-17.68145752 38.04982178 -17.67541504 36.91214355 -17.66918945 35.73999023 C-17.58316049 28.26172689 -17.2708534 20.82603935 -16.625 13.375 C-16.55506836 12.50020996 -16.48513672 11.62541992 -16.41308594 10.72412109 C-16.33219727 9.9192627 -16.25130859 9.1144043 -16.16796875 8.28515625 C-16.06585083 7.23726929 -16.06585083 7.23726929 -15.96166992 6.16821289 C-15.29973137 3.82475926 -14.3110791 2.83440312 -12.4375 1.3125 C-8.41312247 0.29080726 -4.12763535 0.37523958 0 0 Z " transform="translate(178.4375,67.6875)" style="fill: #F3B000;"/><path d="M0 0 C0.99 0 1.98 0 3 0 C4.50662097 3.01324195 4.17770373 5.68286377 4 9 C1.27271024 11.72728976 -0.44519804 11.29416842 -4.25 11.4375 C-9.3119245 11.75107054 -12.82541845 12.10098503 -17 15 C-18.35439668 17.70879335 -18.06501451 20.00933268 -18 23 C-16.17275391 23.05607422 -16.17275391 23.05607422 -14.30859375 23.11328125 C-12.6848671 23.17898117 -11.06117051 23.24542709 -9.4375 23.3125 C-8.23770508 23.34633789 -8.23770508 23.34633789 -7.01367188 23.38085938 C-1.15782848 23.64377479 3.96389229 24.413876 8.58959961 28.35400391 C13.69667848 34.31417801 13.47983914 42.90264104 13.375 50.3125 C13.36702393 51.32489746 13.35904785 52.33729492 13.35083008 53.38037109 C13.17399004 62.66410011 12.33185496 71.11580344 7 79 C2.78184163 81.81210558 -0.91173188 82.38575713 -5.8515625 82.59375 C-8.70761781 83.13380409 -9.94244546 83.93256621 -12 86 C-12.48882833 89.09743394 -12.48882833 89.09743394 -12.25 92.65234375 C-12.23485352 93.30771622 -12.21970703 93.96308868 -12.20410156 94.63832092 C-12.13917889 97.43179697 -12.0282182 100.22289079 -11.91796875 103.01489258 C-11.59664558 111.92209774 -11.32909513 121.0358549 -16 129 C-18.078125 129.87866211 -18.078125 129.87866211 -20 130 C-20.33 129.67 -20.66 129.34 -21 129 C-20.90236618 126.96697519 -20.7411296 124.93696694 -20.5546875 122.91015625 C-19.87951213 114.40359369 -19.97472464 105.95549607 -20.17138672 97.42553711 C-20.21375572 95.47013611 -20.23604909 93.51433263 -20.2578125 91.55859375 C-20.29092529 89.84627563 -20.29092529 89.84627563 -20.32470703 88.09936523 C-19.95974335 84.61574574 -19.07183783 82.79437606 -17 80 C-11.35972464 76.03277257 -5.74841262 74.60253684 1 74 C5.74078117 69.25921883 5.28272845 62.80625398 5.32226562 56.5234375 C5.31743164 54.77933594 5.31743164 54.77933594 5.3125 53 C5.32861328 51.83726563 5.34472656 50.67453125 5.36132812 49.4765625 C5.4100975 41.30359373 5.4100975 41.30359373 2 34 C0.22047237 31.79076707 0.22047237 31.79076707 -2.10717773 31.82055664 C-3.38250366 31.86490845 -3.38250366 31.86490845 -4.68359375 31.91015625 C-6.07481445 31.94012695 -6.07481445 31.94012695 -7.49414062 31.97070312 C-9.4526036 32.03178326 -11.41094575 32.09687217 -13.36914062 32.16601562 C-14.29791016 32.18470703 -15.22667969 32.20339844 -16.18359375 32.22265625 C-17.03493896 32.25109619 -17.88628418 32.27953613 -18.76342773 32.30883789 C-21 32 -21 32 -22.73852539 30.67358398 C-26.09626317 26.21891154 -25.532 20.29044441 -25 15 C-23.78265496 11.32150087 -21.98565094 8.7374526 -18.84375 6.38671875 C-15.35148386 4.6837593 -12.00149923 4.21032384 -8.1875 3.8125 C-7.49462891 3.73064453 -6.80175781 3.64878906 -6.08789062 3.56445312 C-4.39313016 3.36575707 -2.69669806 3.18140797 -1 3 C-0.67 2.01 -0.34 1.02 0 0 Z " transform="translate(225,48)" style="fill: #EDAC00;"/><path d="M0 0 C2.0625 0.25 2.0625 0.25 4 1 C5.27674484 3.55348969 5.1327901 5.39882514 5.125 8.25 C5.12757813 9.18328125 5.13015625 10.1165625 5.1328125 11.078125 C5 14 5 14 4 20 C10.93 20.495 10.93 20.495 18 21 C18 14.07 18 7.14 18 0 C19.32 0.33 20.64 0.66 22 1 C25.24310983 6.56338353 24.33449464 13.36877695 24.31567383 19.60961914 C24.31252435 21.79559702 24.33596042 23.98020577 24.36132812 26.16601562 C24.40084672 34.78828323 24.16333819 41.75208872 18.8125 48.9375 C15.19024408 51.59382101 12.45106745 52.24485243 8 52 C4.75 51.25 4.75 51.25 2 49 C0.19876112 45.45677352 -0.92262545 41.81742808 -2 38 C-2.226875 37.28714844 -2.45375 36.57429688 -2.6875 35.83984375 C-5.53971675 25.55997921 -5.14599375 12.13709098 -2 2 C-1.34 1.34 -0.68 0.68 0 0 Z " transform="translate(489,52)" style="fill: #EEAD00;"/><path d="M0 0 C1.875 0.125 1.875 0.125 4 1 C7.53997082 9.41671383 6.99048527 19.47711698 4 28 C0.71794872 33.64102564 0.71794872 33.64102564 -2 35 C-4.9507885 35.31340722 -7.90958911 35.32395224 -10.875 35.375 C-12.09896484 35.43107422 -12.09896484 35.43107422 -13.34765625 35.48828125 C-19.36816618 35.57667373 -19.36816618 35.57667373 -22.4609375 32.75390625 C-27.09727717 24.45791775 -28.17235889 15.41335223 -27 6 C-25.4765625 3.08203125 -25.4765625 3.08203125 -24 1 C-22.35 1.33 -20.7 1.66 -19 2 C-19 2.99 -19 3.98 -19 5 C-13.06 5 -7.12 5 -1 5 C-0.67 3.35 -0.34 1.7 0 0 Z " transform="translate(349,141)" style="fill: #EEAD00;"/><path d="M0 0 C6.6 0 13.2 0 20 0 C20.12375 4.021875 20.12375 4.021875 20.25 8.125 C20.28641602 8.95789551 20.32283203 9.79079102 20.36035156 10.64892578 C20.43770428 15.87771969 19.56214148 18.91811546 16 23 C12.625 24.125 12.625 24.125 9 24 C5.08435001 21.96687404 2.1747394 19.8485913 0 16 C-0.21476624 13.14790436 -0.28440423 10.58452025 -0.1875 7.75 C-0.125625 5.1925 -0.06375 2.635 0 0 Z " transform="translate(168,106)" style="fill: #060400;"/><path d="M0 0 C1.0725 -0.01417969 2.145 -0.02835937 3.25 -0.04296875 C6 0.1875 6 0.1875 8 2.1875 C8.3347168 4.23461914 8.3347168 4.23461914 8.44921875 6.72265625 C8.49240234 7.61404297 8.53558594 8.50542969 8.58007812 9.42382812 C8.63325195 10.8227832 8.63325195 10.8227832 8.6875 12.25 C8.73455078 13.18650391 8.78160156 14.12300781 8.83007812 15.08789062 C9.05559495 20.19344367 9.05559495 20.19344367 9 22.1875 C7.4779041 23.7095959 6.11789918 23.31709521 4 23.3203125 C3.195625 23.32160156 2.39125 23.32289062 1.5625 23.32421875 C0.716875 23.32035156 -0.12875 23.31648438 -1 23.3125 C-1.845625 23.31636719 -2.69125 23.32023437 -3.5625 23.32421875 C-4.366875 23.32292969 -5.17125 23.32164063 -6 23.3203125 C-6.7425 23.31918457 -7.485 23.31805664 -8.25 23.31689453 C-10 23.1875 -10 23.1875 -11 22.1875 C-11.15461551 19.77609279 -11.23170241 17.41299429 -11.25 15 C-11.27578125 13.68644531 -11.3015625 12.37289062 -11.328125 11.01953125 C-10.98300293 6.98899852 -10.13159024 4.59700963 -8 1.1875 C-5.27457733 -0.17521133 -3.03912726 0.01826399 0 0 Z " transform="translate(179,75.8125)" style="fill: #090600;"/><path d="M0 0 C0 1.65 0 3.3 0 5 C-4.29 5.66 -8.58 6.32 -13 7 C-13.33 8.32 -13.66 9.64 -14 11 C-12.88873341 12.33901792 -12.88873341 12.33901792 -10.05859375 12.09765625 C-8.86363281 12.08605469 -7.66867187 12.07445313 -6.4375 12.0625 C-3.2509375 12.0315625 -3.2509375 12.0315625 0 12 C0 16.62 0 21.24 0 26 C-5.28 26 -10.56 26 -16 26 C-17.155 23.73125 -18.31 21.4625 -19.5 19.125 C-19.86544922 18.41230957 -20.23089844 17.69961914 -20.60742188 16.96533203 C-23 12.22222222 -23 12.22222222 -23 10 C-21.18958266 9.09479133 -19.3787647 8.19037851 -17.56640625 7.2890625 C-15.67224152 6.33765556 -13.78524626 5.37194321 -11.90234375 4.3984375 C-10.31099609 3.58246094 -10.31099609 3.58246094 -8.6875 2.75 C-7.17736328 1.96882813 -7.17736328 1.96882813 -5.63671875 1.171875 C-3 0 -3 0 0 0 Z " transform="translate(335,95)" style="fill: #110D00;"/><path d="M0 0 C0.68513672 -0.00386719 1.37027344 -0.00773438 2.07617188 -0.01171875 C7.1841133 -0.00169335 7.1841133 -0.00169335 9.4375 1.125 C9.81129162 10.65668636 9.81129162 10.65668636 7.4375 15.125 C5.63574298 16.92675702 3.06015322 16.42344137 0.625 16.5 C-5.16930618 16.4724736 -5.16930618 16.4724736 -8.25 13.75 C-10.60792784 9.03414433 -10.64794678 6.42270031 -10.5625 1.125 C-6.98556178 -0.06731274 -3.72067447 -0.0211202 0 0 Z " transform="translate(338.5625,152.875)" style="fill: #171000;"/><path d="M0 0 C4.55315948 0.61811534 8.28459767 2.46765893 12.3125 4.5625 C13.28026367 5.0565332 13.28026367 5.0565332 14.26757812 5.56054688 C15.84785228 6.36824255 17.42432105 7.18337613 19 8 C18.01 8.495 18.01 8.495 17 9 C17 9.66 17 10.32 17 11 C16.01 11.495 16.01 11.495 15 12 C14.53045739 15.04581269 14.53045739 15.04581269 14.375 18.5625 C14.25125 20.686875 14.1275 22.81125 14 25 C7.07 24.505 7.07 24.505 0 24 C0 19.71 0 15.42 0 11 C4.455 10.505 4.455 10.505 9 10 C9 8.68 9 7.36 9 6 C6.03 5.67 3.06 5.34 0 5 C0 3.35 0 1.7 0 0 Z " transform="translate(342,96)" style="fill: #0F0B00;"/><path d="M0 0 C1.86328125 0.2421875 1.86328125 0.2421875 4 1 C5.23046875 2.8203125 5.23046875 2.8203125 6.1875 5.125 C6.51105469 5.87007812 6.83460938 6.61515625 7.16796875 7.3828125 C9.45756897 14.58484137 9.12013536 21.96707034 9.0625 29.4375 C9.05798828 30.55060547 9.05347656 31.66371094 9.04882812 32.81054688 C9.03711193 35.54042101 9.02070699 38.27018174 9 41 C7.02 41.495 7.02 41.495 5 42 C3.15976174 37.27746084 2.69796655 32.94919305 2.5625 27.9375 C2.29868431 21.29669686 1.35772793 15.25204775 -0.4765625 8.83203125 C-1.07218651 5.60943865 -0.70655761 3.17950923 0 0 Z " transform="translate(356,136)" style="fill: #ECAB00;"/><path d="M0 0 C3.70826651 -0.05837668 7.4164137 -0.09372277 11.125 -0.125 C12.69507813 -0.15013672 12.69507813 -0.15013672 14.296875 -0.17578125 C19.59269336 -0.20929909 24.0571059 -0.17213685 29 2 C28.75 3.875 28.75 3.875 28 6 C23.25877492 9.08443257 17.82361385 8.32915224 12.375 8.3125 C11.3128125 8.32861328 10.250625 8.34472656 9.15625 8.36132812 C7.63644531 8.36229492 7.63644531 8.36229492 6.0859375 8.36328125 C5.1582959 8.36626221 4.2306543 8.36924316 3.27490234 8.37231445 C2.14882568 8.1880188 2.14882568 8.1880188 1 8 C-1 5 -1 5 -0.625 2.3125 C-0.41875 1.549375 -0.2125 0.78625 0 0 Z " transform="translate(200,97)" style="fill: #E2A400;"/><path d="M0 0 C1.06546953 3.1964086 1.07427838 5.65747276 1 9 C0.01 9 -0.98 9 -2 9 C-2.33 8.34 -2.66 7.68 -3 7 C-3.99 7 -4.98 7 -6 7 C-6.33 8.32 -6.66 9.64 -7 11 C-12.94 11 -18.88 11 -25 11 C-25.33 10.01 -25.66 9.02 -26 8 C-26.99 7.67 -27.98 7.34 -29 7 C-29.33 6.01 -29.66 5.02 -30 4 C-26.17679443 2.57741188 -23.08718695 1.75957724 -19 2 C-18.67 4.64 -18.34 7.28 -18 10 C-17.01 9.67 -16.02 9.34 -15 9 C-14.19787372 7.12612784 -14.19787372 7.12612784 -13.8125 4.9375 C-13.544375 3.638125 -13.27625 2.33875 -13 1 C-6.565 0.505 -6.565 0.505 0 0 Z " transform="translate(355,135)" style="fill: #0F0B00;"/><path d="M0 0 C1.97909398 -0.02686553 3.95828971 -0.04633375 5.9375 -0.0625 C7.03964844 -0.07410156 8.14179688 -0.08570312 9.27734375 -0.09765625 C12 0 12 0 13 1 C13.26458786 6.20356126 13.02624327 10.11317799 11 15 C10 16 10 16 7.125 16.25 C4 16 4 16 2.1875 14.6875 C-0.07940793 11.46610451 -0.11188799 8.61537526 -0.0625 4.8125 C-0.05347656 3.91144531 -0.04445313 3.01039062 -0.03515625 2.08203125 C-0.02355469 1.39496094 -0.01195312 0.70789063 0 0 Z " transform="translate(493,80)" style="fill: #030200;"/><path d="M0 0 C2.7708983 -0.02696009 5.5415345 -0.04681952 8.3125 -0.0625 C9.09818359 -0.07087891 9.88386719 -0.07925781 10.69335938 -0.08789062 C11.45068359 -0.09111328 12.20800781 -0.09433594 12.98828125 -0.09765625 C13.68477783 -0.10289307 14.38127441 -0.10812988 15.09887695 -0.11352539 C17 0 17 0 20 1 C20.50404219 4.91615756 21.00253233 8.8330023 21.5 12.75 C21.64308594 13.86117187 21.78617187 14.97234375 21.93359375 16.1171875 C22.06894531 17.18710938 22.20429688 18.25703125 22.34375 19.359375 C22.46943359 20.34389648 22.59511719 21.32841797 22.72460938 22.34277344 C23 25 23 25 23 29 C22.01 29.33 21.02 29.66 20 30 C19.87625 28.948125 19.7525 27.89625 19.625 26.8125 C19.08859218 23.54041229 18.36119965 20.99463924 17 18 C17.66 18 18.32 18 19 18 C18.7525 16.72125 18.505 15.4425 18.25 14.125 C18.11078125 13.40570313 17.9715625 12.68640625 17.828125 11.9453125 C17.1681333 9.88851111 17.1681333 9.88851111 15.34375 8.9375 C14.5703125 8.628125 13.796875 8.31875 13 8 C11.93265625 7.50242187 10.8653125 7.00484375 9.765625 6.4921875 C8.60546875 5.95851563 7.4453125 5.42484375 6.25 4.875 C5.07953125 4.33617188 3.9090625 3.79734375 2.703125 3.2421875 C1.81109375 2.83226563 0.9190625 2.42234375 0 2 C0 1.34 0 0.68 0 0 Z " transform="translate(342,87)" style="fill: #0A0700;"/><path d="M0 0 C4.62 0 9.24 0 14 0 C13 5 13 5 10.56640625 6.80078125 C9.57511719 7.29964844 8.58382812 7.79851562 7.5625 8.3125 C6.57378906 8.82425781 5.58507813 9.33601563 4.56640625 9.86328125 C2 11 2 11 0 11 C0 7.37 0 3.74 0 0 Z " transform="translate(51,98)" style="fill: #0A0700;"/><path d="M0 0 C6.6 0 13.2 0 20 0 C20.33 1.65 20.66 3.3 21 5 C14.07 5 7.14 5 0 5 C0 3.35 0 1.7 0 0 Z " transform="translate(342,65)" style="fill: #191200;"/><path d="M0 0 C5.28 0 10.56 0 16 0 C16.33 1.32 16.66 2.64 17 4 C14.21220121 6.78779879 12.38197673 6.29961733 8.5 6.3125 C6.75203125 6.33763672 6.75203125 6.33763672 4.96875 6.36328125 C3.9890625 6.24339844 3.009375 6.12351563 2 6 C0 3 0 3 0 0 Z " transform="translate(330,158)" style="fill: #EEAD00;"/><path d="M0 0 C5.61 0 11.22 0 17 0 C17.66 1.32 18.32 2.64 19 4 C18 5 18 5 16.23413086 5.11352539 C15.48526611 5.10828857 14.73640137 5.10305176 13.96484375 5.09765625 C13.15595703 5.09443359 12.34707031 5.09121094 11.51367188 5.08789062 C10.66353516 5.07951172 9.81339844 5.07113281 8.9375 5.0625 C8.08349609 5.05798828 7.22949219 5.05347656 6.34960938 5.04882812 C4.23304337 5.03700373 2.11651315 5.01906769 0 5 C0 3.35 0 1.7 0 0 Z " transform="translate(342,76)" style="fill: #0B0800;"/><path d="M0 0 C0.125 2.375 0.125 2.375 0 5 C-2.69101234 7.69101234 -4.19075946 7.29887549 -7.9375 7.3125 C-8.99839844 7.32925781 -10.05929687 7.34601563 -11.15234375 7.36328125 C-14 7 -14 7 -15.87890625 5.66796875 C-17 4 -17 4 -17 1 C-15.92878906 1.01160156 -14.85757812 1.02320313 -13.75390625 1.03515625 C-12.35677257 1.04453299 -10.95963701 1.05363331 -9.5625 1.0625 C-8.85544922 1.07087891 -8.14839844 1.07925781 -7.41992188 1.08789062 C-5.61306441 1.09653588 -3.80612397 1.05220011 -2 1 C-1 0 -1 0 0 0 Z " transform="translate(347,162)" style="fill: #050400;"/><path d="M0 0 C1.98 0 3.96 0 6 0 C6 4.29 6 8.58 6 13 C4.02 13 2.04 13 0 13 C0 8.71 0 4.42 0 0 Z " transform="translate(329,107)" style="fill: #060400;"/><path d="M0 0 C3.69230769 0.69230769 3.69230769 0.69230769 5 2 C5.1875 5.4375 5.1875 5.4375 5 9 C4.34 9.66 3.68 10.32 3 11 C0.875 10.625 0.875 10.625 -1 10 C-1.02689216 8.52093108 -1.04634621 7.04172517 -1.0625 5.5625 C-1.07410156 4.73878906 -1.08570313 3.91507812 -1.09765625 3.06640625 C-1 1 -1 1 0 0 Z " transform="translate(325,109)" style="fill: #EFAD00;"/><path d="M0 0 C0.66 0 1.32 0 2 0 C2.33740085 1.91595482 2.66976412 3.83279722 3 5.75 C3.185625 6.81734375 3.37125 7.8846875 3.5625 8.984375 C4 12 4 12 4 16 C3.01 16.33 2.02 16.66 1 17 C0.814375 15.4221875 0.814375 15.4221875 0.625 13.8125 C0.08859218 10.54041229 -0.63880035 7.99463924 -2 5 C-1.34 5 -0.68 5 0 5 C0 3.35 0 1.7 0 0 Z " transform="translate(361,100)" style="fill: #171000;"/><path d="M0 0 C0 1.65 0 3.3 0 5 C-0.91523438 5.13277344 -1.83046875 5.26554687 -2.7734375 5.40234375 C-3.96195312 5.57894531 -5.15046875 5.75554687 -6.375 5.9375 C-7.55835938 6.11152344 -8.74171875 6.28554687 -9.9609375 6.46484375 C-12.90702381 6.83462786 -12.90702381 6.83462786 -15 8 C-14 5 -14 5 -11.6015625 3.61328125 C-10.12816406 2.96939453 -10.12816406 2.96939453 -8.625 2.3125 C-7.64789063 1.87550781 -6.67078125 1.43851562 -5.6640625 0.98828125 C-3 0 -3 0 0 0 Z " transform="translate(335,95)" style="fill: #231900;"/><path d="M0 0 C1.98 0.495 1.98 0.495 4 1 C4 3.97 4 6.94 4 10 C2.35 9.67 0.7 9.34 -1 9 C-1.09765625 2.84765625 -1.09765625 2.84765625 -1 1 C-0.67 0.67 -0.34 0.34 0 0 Z " transform="translate(347,109)" style="fill: #F0AE00;"/><path d="M0 0 C0 1.32 0 2.64 0 4 C-1.81325551 3.88648483 -3.62563357 3.75887039 -5.4375 3.625 C-6.95150391 3.52058594 -6.95150391 3.52058594 -8.49609375 3.4140625 C-9.32238281 3.27742188 -10.14867187 3.14078125 -11 3 C-11.33 2.34 -11.66 1.68 -12 1 C-8.00439392 -1.83022097 -4.57262677 -0.76210446 0 0 Z " transform="translate(472,70)" style="fill: #0F0B00;"/><path d="M0 0 C3.63 0 7.26 0 11 0 C10.34 1.32 9.68 2.64 9 4 C6.03 4 3.06 4 0 4 C0 2.68 0 1.36 0 0 Z " transform="translate(342,126)" style="fill: #150F00;"/><path d="M0 0 C3.82097239 0.53069061 6.06171403 1.49701566 9 4 C6.03 4 3.06 4 0 4 C0 2.68 0 1.36 0 0 Z " transform="translate(342,96)" style="fill: #050400;"/></svg>