<?xml version="1.0" encoding="UTF-8"?>
<!-- Generator: visioncortex VTracer -->
<svg id="svg" version="1.1" xmlns="http://www.w3.org/2000/svg" style="display: block;" viewBox="0 0 394 196"><path d="M0 0 C130.02 0 260.04 0 394 0 C394 64.68 394 129.36 394 196 C263.98 196 133.96 196 0 196 C0 131.32 0 66.64 0 0 Z " transform="translate(0,0)" style="fill: #010000;"/><path d="M0 0 C1.0403389 0.01918991 2.0806778 0.03837982 3.15254211 0.05815125 C4.33104233 0.07509537 5.50954254 0.09203949 6.72375488 0.10949707 C8.00389969 0.13855637 9.28404449 0.16761566 10.60298157 0.19755554 C12.5714782 0.23153694 12.5714782 0.23153694 14.57974243 0.26620483 C17.36328379 0.31479183 20.14657979 0.37014476 22.92988586 0.43070984 C26.48258203 0.50785213 30.03535809 0.57242401 33.58838177 0.63236713 C36.98918522 0.69063865 40.38981701 0.75665386 43.79048157 0.82255554 C45.69551704 0.85703545 45.69551704 0.85703545 47.63903809 0.89221191 C63.5637354 1.24424688 63.5637354 1.24424688 65.52876282 3.20927429 C65.56957065 5.20885793 65.57130638 7.20972683 65.52876282 9.20927429 C62.04961439 9.2386934 58.57049864 9.25621221 55.09126282 9.27177429 C53.63043274 9.28434265 53.63043274 9.28434265 52.14009094 9.29716492 C46.18097313 9.31709508 40.43808599 8.98536948 34.52876282 8.20927429 C34.58083892 12.08535216 34.6759648 15.959236 34.77876282 19.83427429 C34.7929425 20.92868835 34.80712219 22.02310242 34.82173157 23.15068054 C35.01118554 29.4026616 35.23440886 33.50668193 39.52876282 38.20927429 C43.11419554 40.42156257 46.36959046 41.5976313 50.52876282 42.20927429 C50.87938782 40.95114929 51.23001282 39.69302429 51.59126282 38.39677429 C53.56182071 32.38944247 56.98805987 27.39907176 60.52876282 22.20927429 C62.50876282 22.70427429 62.50876282 22.70427429 64.52876282 23.20927429 C65.14077355 28.96217516 63.83889077 32.10456409 60.81782532 36.99833679 C57.99446823 41.84082199 57.27410265 45.52363638 57.34126282 51.14677429 C57.35093079 52.92374695 57.35093079 52.92374695 57.36079407 54.73661804 C57.44507118 58.09860524 57.44507118 58.09860524 58.03266907 60.92021179 C58.78464209 65.90573375 58.6723963 70.86262786 58.65376282 75.89677429 C58.6595636 77.43494812 58.6595636 77.43494812 58.66548157 79.00419617 C58.64946944 91.67779142 58.50086358 103.12726511 49.78657532 113.22880554 C43.11008068 119.32667064 35.92411029 119.67287312 27.15766907 119.51005554 C20.05476154 118.92133231 16.28601107 116.25315031 11.34126282 111.27177429 C1.04961899 98.99473461 0.48138954 82.49316576 1.52876282 67.20927429 C2.080267 63.25142071 2.9781907 59.37532134 3.84126282 55.47489929 C5.71923172 46.554547 4.30109234 40.99287652 -0.47123718 33.20927429 C-1.01779968 32.52993835 -1.56436218 31.85060242 -2.12748718 31.15068054 C-4.13786689 28.2461494 -3.66913205 25.63945206 -3.47123718 22.20927429 C-0.48771604 21.9226925 0.99768136 21.79412538 3.40766907 23.67802429 C12.52876282 34.68259216 12.52876282 34.68259216 12.52876282 42.20927429 C14.13849788 41.64148781 15.74141608 41.05435319 17.34126282 40.45927429 C18.23458313 40.13443054 19.12790344 39.80958679 20.04829407 39.47489929 C22.91112461 38.01417946 23.89128719 36.95638598 25.52876282 34.20927429 C25.9401483 31.40735105 25.9401483 31.40735105 25.82173157 28.34989929 C25.8120636 27.23486023 25.80239563 26.11982117 25.79243469 24.97099304 C25.76729797 23.81212585 25.74216125 22.65325867 25.71626282 21.45927429 C25.70272766 20.28493835 25.6891925 19.11060242 25.67524719 17.90068054 C25.63991062 15.00308131 25.59057261 12.10641002 25.52876282 9.20927429 C24.27216858 9.27042419 24.27216858 9.27042419 22.9901886 9.33280945 C19.88567806 9.47895985 16.78093794 9.61583006 13.67573547 9.74638367 C12.33116715 9.80482904 10.98675484 9.86698505 9.64253235 9.9329071 C7.71182944 10.02694872 5.78044252 10.10660121 3.84907532 10.18583679 C2.68650208 10.23820496 1.52392883 10.29057312 0.3261261 10.3445282 C-2.47123718 10.20927429 -2.47123718 10.20927429 -4.47123718 8.20927429 C-4.72123718 5.20927429 -4.72123718 5.20927429 -4.47123718 2.20927429 C-2.47123718 0.20927429 -2.47123718 0.20927429 0 0 Z " transform="translate(28.471237182617188,49.79072570800781)" style="fill: #F3B000;"/><path d="M0 0 C3 1 3 1 4 3 C4.0716735 5.55157655 4.09308442 8.07472971 4.0625 10.625 C4.05798828 11.33140625 4.05347656 12.0378125 4.04882812 12.765625 C4.03703875 14.51045275 4.01910324 16.255237 4 18 C7.63 18 11.26 18 15 18 C15.495 20.475 15.495 20.475 16 23 C14 25 14 25 11.6171875 25.1953125 C10.71226562 25.17210938 9.80734375 25.14890625 8.875 25.125 C7.96492188 25.10695313 7.05484375 25.08890625 6.1171875 25.0703125 C5.41851562 25.04710938 4.71984375 25.02390625 4 25 C4.33 25.66 4.66 26.32 5 27 C5.04022391 29.3329866 5.04320247 31.66706666 5 34 C5.886875 33.9175 6.77375 33.835 7.6875 33.75 C11.90417978 34.06823998 13.21261901 34.82548276 16 38 C19.6640072 48.29411546 19.49995593 62.67513001 16 73 C13.29575831 76.76662235 10.41015124 77.79723148 6 79 C5.67 81.31 5.34 83.62 5 86 C9.62 86 14.24 86 19 86 C19.33 87.65 19.66 89.3 20 91 C17.11584117 92.44207941 14.58278472 92.09394887 11.375 92.0625 C10.18648438 92.05347656 8.99796875 92.04445313 7.7734375 92.03515625 C6.40058594 92.01775391 6.40058594 92.01775391 5 92 C5.01047363 92.70495605 5.02094727 93.40991211 5.03173828 94.13623047 C5.07374505 97.38244956 5.0994666 100.62861116 5.125 103.875 C5.14175781 104.98359375 5.15851563 106.0921875 5.17578125 107.234375 C5.26539789 122.46920422 5.26539789 122.46920422 2 129 C1.01 128.67 0.02 128.34 -1 128 C-1 116.45 -1 104.9 -1 93 C-6.94 93 -12.88 93 -19 93 C-19 86 -19 86 -18 85 C-15.30345146 84.92680379 -12.63308542 84.90757463 -9.9375 84.9375 C-9.17888672 84.94201172 -8.42027344 84.94652344 -7.63867188 84.95117188 C-5.75908129 84.9629932 -3.87953101 84.98092922 -2 85 C-2 82.69 -2 80.38 -2 78 C-3.051875 78.103125 -4.10375 78.20625 -5.1875 78.3125 C-9 78 -9 78 -11.75 76.125 C-17.0101007 68.81930459 -17.48269573 60.44076952 -17.375 51.6875 C-17.38660156 50.72521484 -17.39820313 49.76292969 -17.41015625 48.77148438 C-17.3736001 39.96754377 -17.3736001 39.96754377 -14 36 C-10.91111478 33.94074319 -10.29064073 33.7609626 -6.8125 33.875 C-5.554375 33.91625 -4.29625 33.9575 -3 34 C-3 31.36 -3 28.72 -3 26 C-7.95 26 -12.9 26 -18 26 C-17 19 -17 19 -15 17 C-12.1796875 17.0234375 -12.1796875 17.0234375 -8.875 17.375 C-7.77929688 17.48585938 -6.68359375 17.59671875 -5.5546875 17.7109375 C-4.71164062 17.80632813 -3.86859375 17.90171875 -3 18 C-3.05220703 16.55367187 -3.05220703 16.55367187 -3.10546875 15.078125 C-3.13253906 13.81484375 -3.15960938 12.5515625 -3.1875 11.25 C-3.23970703 9.37054688 -3.23970703 9.37054688 -3.29296875 7.453125 C-2.98802939 3.85890643 -2.45605371 2.55274874 0 0 Z " transform="translate(319,44)" style="fill: #F2AF00;"/><path d="M0 0 C2.81492146 1.10890845 3.65208868 2.13271849 5.0625 4.8125 C5.11245286 7.14529857 5.11687528 9.47980033 5.0625 11.8125 C5.97128906 11.75449219 6.88007813 11.69648437 7.81640625 11.63671875 C17.82502789 11.2774349 25.82175489 12.77349883 35.0625 16.8125 C36.0525 17.8025 36.0525 17.8025 37.0625 18.8125 C36.77512204 22.04550206 36.19353208 25.15383435 35.56054688 28.33569336 C33.85124601 37.83540099 33.75729449 47.17569054 33.80175781 56.80371094 C33.81242737 59.54384772 33.80183464 62.28332119 33.7890625 65.0234375 C33.77867601 78.39145311 34.89347852 91.26438407 37.1875 104.4375 C38.34638301 111.58092729 38.24219589 118.59471511 38.0625 125.8125 C36.7425 125.8125 35.4225 125.8125 34.0625 125.8125 C31.60829482 118.54541156 30.20785234 111.4603726 29.3671875 103.84375 C29.17550491 102.10828918 29.17550491 102.10828918 28.97994995 100.33776855 C28.04352979 90.81973601 27.85812636 81.3953053 27.9453125 71.84375 C27.95184593 71.12674927 27.95837936 70.40974854 27.96511078 69.67102051 C28.03339296 63.03137553 28.14727522 56.39264398 28.27490234 49.75390625 C28.34422434 46.06593525 28.38941034 42.37828827 28.42007065 38.68980408 C28.44483738 36.63320345 28.49811082 34.57859282 28.55203247 32.52258301 C28.5620932 31.28858765 28.57215393 30.05459229 28.58251953 28.78320312 C28.6026712 27.69881958 28.62282288 26.61443604 28.64358521 25.49719238 C28.31488624 22.61337354 28.31488624 22.61337354 25.73703003 20.9510498 C22.65448572 19.63880796 20.38017593 19.58103424 17.0625 19.8125 C17.70058594 20.25980469 18.33867187 20.70710938 18.99609375 21.16796875 C19.82238281 21.77253906 20.64867187 22.37710938 21.5 23 C22.32371094 23.59167969 23.14742187 24.18335937 23.99609375 24.79296875 C26.38924163 27.13182973 26.75111865 28.5345036 27.0625 31.8125 C23.68544375 31.27524105 20.365814 30.70185377 17.0625 29.8125 C17.0625 31.4625 17.0625 33.1125 17.0625 34.8125 C19.7025 34.8125 22.3425 34.8125 25.0625 34.8125 C25.5575 36.7925 25.5575 36.7925 26.0625 38.8125 C23.4225 39.4725 20.7825 40.1325 18.0625 40.8125 C17.7325 42.7925 17.4025 44.7725 17.0625 46.8125 C20.58631687 44.26645403 20.58631687 44.26645403 23.0625 40.8125 C23.7225 40.8125 24.3825 40.8125 25.0625 40.8125 C25.55165663 47.17153614 25.55165663 47.17153614 23.25 50.1875 C19.30137481 53.12076443 15.85786773 53.13760968 11.0625 52.8125 C7.6875 51.75 7.6875 51.75 5.0625 49.8125 C4.1875 46.125 4.1875 46.125 4.0625 42.8125 C7.1456351 44.01149698 10.12529492 45.28950477 13.0625 46.8125 C12.5675 43.8425 12.5675 43.8425 12.0625 40.8125 C9.4225 40.4825 6.7825 40.1525 4.0625 39.8125 C4.0625 38.1625 4.0625 36.5125 4.0625 34.8125 C6.3725 34.4825 8.6825 34.1525 11.0625 33.8125 C11.3925 32.4925 11.7225 31.1725 12.0625 29.8125 C11.134375 30.286875 10.20625 30.76125 9.25 31.25 C6.0625 32.8125 6.0625 32.8125 3.0625 33.8125 C2.75 31.125 2.75 31.125 3.0625 27.8125 C5.3125 25.1875 5.3125 25.1875 8.0625 22.8125 C9.40304688 21.48641945 10.73768611 20.15429868 12.0625 18.8125 C-6.37809989 17.961971 -6.37809989 17.961971 -23.9375 22.8125 C-23.90720703 23.40337402 -23.87691406 23.99424805 -23.84570312 24.60302734 C-23.04363104 40.68457269 -22.72514382 56.71260279 -22.9375 72.8125 C-22.94610046 73.527547 -22.95470093 74.24259399 -22.96356201 74.97930908 C-23.02217063 79.73448939 -23.10135604 84.48880585 -23.20196533 89.24328613 C-23.23349112 90.80643626 -23.26077218 92.36967895 -23.28338623 93.9329834 C-23.4601689 105.50552134 -23.81747201 117.61245336 -29.9375 127.8125 C-31.2575 127.4825 -32.5775 127.1525 -33.9375 126.8125 C-34.23431885 120.67824382 -33.70025689 115.08226829 -32.5625 109.0625 C-31.00935143 100.60236492 -30.3158841 92.14066834 -29.75 83.5625 C-29.66637207 82.32016602 -29.58274414 81.07783203 -29.49658203 79.79785156 C-28.71820164 67.15293659 -28.62838117 54.82763064 -30.25 42.25 C-30.36794922 41.21037109 -30.48589844 40.17074219 -30.60742188 39.09960938 C-31.24792712 33.98542138 -31.7962998 30.05482744 -34.9375 25.8125 C-35.625 23.3125 -35.625 23.3125 -34.9375 20.8125 C-26.06464651 13.38827565 -13.05743567 11.80100614 -1.9375 9.8125 C-2.53401306 6.78983297 -3.16419667 3.79524142 -3.9375 0.8125 C-1.9375 -0.1875 -1.9375 -0.1875 0 0 Z " transform="translate(195.9375,43.1875)" style="fill: #F0AE00;"/><path d="M0 0 C1.39895508 -0.01836914 1.39895508 -0.01836914 2.82617188 -0.03710938 C11.74991985 -0.0561908 11.74991985 -0.0561908 15.4375 2.1875 C18.22559138 5.23904311 18.81448989 7.22739043 18.80078125 11.328125 C18.80013672 12.31683594 18.79949219 13.30554688 18.79882812 14.32421875 C18.78271484 15.35160156 18.76660156 16.37898438 18.75 17.4375 C18.75322266 18.44941406 18.75644531 19.46132812 18.75976562 20.50390625 C18.66496473 33.79326803 18.66496473 33.79326803 15.125 39.1875 C12.85016654 40.53554946 11.03885542 40.25539835 8.4375 40.1875 C9.03484819 43.16817651 9.64018207 46.14687099 10.25 49.125 C10.4984668 50.37120117 10.4984668 50.37120117 10.75195312 51.64257812 C11.78497423 56.65175595 13.08694515 61.3859328 14.88867188 66.17578125 C15.77434178 69.42218696 15.19613183 71.94607311 14.4375 75.1875 C13.4475 75.1875 12.4575 75.1875 11.4375 75.1875 C8.49513259 68.99350735 6.87455701 62.64664437 5.25 56 C4.97736328 54.92041016 4.70472656 53.84082031 4.42382812 52.72851562 C3.3501192 48.39331492 2.4375 44.67619703 2.4375 40.1875 C0.4575 40.6825 0.4575 40.6825 -1.5625 41.1875 C-1.63726562 42.24066406 -1.71203125 43.29382813 -1.7890625 44.37890625 C-2.77343701 55.84633434 -5.06154872 66.43607308 -11.5625 76.1875 C-12.5525 76.1875 -13.5425 76.1875 -14.5625 76.1875 C-14.19510304 70.76839479 -13.30503949 66.15185589 -11.5625 61 C-9.30928155 54.09339562 -8.77929234 47.41752454 -8.5625 40.1875 C-9.49578125 40.22875 -10.4290625 40.27 -11.390625 40.3125 C-14.5625 40.1875 -14.5625 40.1875 -17.3125 38.1875 C-22.07479723 31.83777037 -21.95130738 24.15556132 -22 16.5 C-22.03287109 15.57638672 -22.06574219 14.65277344 -22.09960938 13.70117188 C-22.13536418 9.18631465 -22.05010615 6.88572369 -19.41015625 3.10546875 C-13.61453061 -0.79803219 -6.76245585 0.00469289 0 0 Z " transform="translate(200.5625,97.8125)" style="fill: #F3B000;"/><path d="M0 0 C1.32 0.66 2.64 1.32 4 2 C4.01401855 3.29248657 4.01401855 3.29248657 4.02832031 4.61108398 C4.07268242 7.84886581 4.13445068 11.08574648 4.20751953 14.32299805 C4.23551371 15.71643218 4.25683406 17.11001875 4.27099609 18.50366211 C4.3607475 26.84156816 4.89149014 33.58003118 9 41 C11.97 41 14.94 41 18 41 C20.07996128 36.71965863 20.338835 32.74957206 20.4140625 28.07421875 C20.43342865 27.32662796 20.4527948 26.57903717 20.4727478 25.80879211 C20.53223918 23.43514194 20.57880592 21.06144246 20.625 18.6875 C20.66320789 17.07224518 20.70226125 15.45701013 20.7421875 13.84179688 C20.8379153 9.8946929 20.92205767 5.94749361 21 2 C22.32 1.67 23.64 1.34 25 1 C27.81198384 4.97934517 28.37596717 7.70853091 28.36328125 12.55078125 C28.36263672 13.80697266 28.36199219 15.06316406 28.36132812 16.35742188 C28.34521484 17.66259766 28.32910156 18.96777344 28.3125 20.3125 C28.31572266 21.60607422 28.31894531 22.89964844 28.32226562 24.23242188 C28.26852226 33.7840832 28.15609862 42.84390138 21 50 C19.35 50 17.7 50 16 50 C16 54.29 16 58.58 16 63 C17.12019531 62.97679687 18.24039062 62.95359375 19.39453125 62.9296875 C20.86718084 62.91092763 22.33983763 62.89272766 23.8125 62.875 C24.55048828 62.85824219 25.28847656 62.84148437 26.04882812 62.82421875 C29.91246426 62.78925372 31.70903668 62.80602445 35 65 C34.67 66.65 34.34 68.3 34 70 C28.06 70.33 22.12 70.66 16 71 C15.98018066 72.58981689 15.96036133 74.17963379 15.93994141 75.81762695 C15.86398261 81.70499764 15.77525017 87.59211803 15.68261719 93.47924805 C15.64428722 96.02932806 15.60944152 98.57946289 15.578125 101.12963867 C15.53256201 104.79105243 15.47455262 108.4520875 15.4140625 112.11328125 C15.39673569 113.82902092 15.39673569 113.82902092 15.37905884 115.579422 C15.35918915 116.64029526 15.33931946 117.70116852 15.31884766 118.79418945 C15.30552399 119.72906693 15.29220032 120.6639444 15.2784729 121.62715149 C15 124 15 124 13 127 C10 126 10 126 9 124 C8.90948931 122.30456409 8.88245128 120.60556022 8.88647461 118.90771484 C8.88655014 117.84676605 8.88662567 116.78581726 8.88670349 115.69271851 C8.89186478 114.54373077 8.89702606 113.39474304 8.90234375 112.2109375 C8.9037587 111.03737701 8.90517365 109.86381653 8.90663147 108.6546936 C8.91224311 104.89477015 8.92479762 101.13490555 8.9375 97.375 C8.9425135 94.83073002 8.94707667 92.28645912 8.95117188 89.7421875 C8.96221632 83.49477147 8.97896582 77.24738994 9 71 C7.94039063 71.02320312 6.88078125 71.04640625 5.7890625 71.0703125 C4.4010487 71.08906944 3.0130273 71.10726972 1.625 71.125 C0.92632812 71.14175781 0.22765625 71.15851563 -0.4921875 71.17578125 C-2.32897486 71.19344267 -4.16601963 71.10303261 -6 71 C-8 69 -8 69 -8.125 65.875 C-8.08375 64.92625 -8.0425 63.9775 -8 63 C-4.31599416 61.76895845 -1.08525024 62.09232748 2.75 62.4375 C4.8125 62.623125 6.875 62.80875 9 63 C9 58.71 9 54.42 9 50 C7.35 49.34 5.7 48.68 4 48 C-3.99529257 38.8271062 -4.57811606 26.59052195 -4 15 C-2.76781934 4.151729 -2.76781934 4.151729 0 0 Z " transform="translate(345,46)" style="fill: #F2B000;"/><path d="M0 0 C0.99136963 -0.00064453 1.98273926 -0.00128906 3.00415039 -0.00195312 C7.43135413 0.03140538 11.47698684 0.21852175 15.8125 1.1875 C16.10840964 10.50865373 15.1470046 19.26343006 9.8125 27.1875 C6.50360406 30.68746079 3.29541063 32.94281898 -1.60546875 33.42578125 C-9.04081712 33.625036 -14.32677821 32.73234455 -19.90625 27.609375 C-26.83427727 20.07005121 -28.23798821 12.11348137 -28.1875 2.1875 C-18.75642209 0.65443654 -9.55428446 -0.00605804 0 0 Z " transform="translate(65.1875,128.8125)" style="fill: #050400;"/><path d="M0 0 C0.94101562 0.54269531 1.88203125 1.08539063 2.8515625 1.64453125 C4.10932463 2.36727516 5.36713997 3.08992648 6.625 3.8125 C7.24246094 4.16892578 7.85992187 4.52535156 8.49609375 4.89257812 C9.10839844 5.24384766 9.72070312 5.59511719 10.3515625 5.95703125 C10.96080566 6.30709229 11.57004883 6.65715332 12.19775391 7.01782227 C13.88022774 7.9347272 15.62706358 8.73067207 17.375 9.515625 C20 11 20 11 21.0234375 12.83984375 C22.09704959 19.24572924 22.19761076 25.51178017 22 32 C7.31862518 32.20517449 -7.33248176 31.58125915 -22 31 C-22.17090539 23.23234994 -21.70332005 16.01544431 -18 9 C-15.06552592 6.98622767 -12.47932822 5.97740176 -9.0703125 4.9921875 C-5.5618883 3.85842192 -2.98037645 2.14409171 0 0 Z " transform="translate(59,91)" style="fill: #040300;"/><path d="M0 0 C0.83265381 0.00523682 1.66530762 0.01047363 2.52319336 0.01586914 C3.42231445 0.0190918 4.32143555 0.02231445 5.24780273 0.02563477 C6.66609375 0.03820312 6.66609375 0.03820312 8.11303711 0.05102539 C9.06243164 0.05553711 10.01182617 0.06004883 10.98999023 0.06469727 C13.34356776 0.07652429 15.69702188 0.09300514 18.05053711 0.11352539 C18.67553711 1.98852539 18.67553711 1.98852539 19.05053711 4.11352539 C16.69100617 6.47305633 15.27158093 6.60493952 12.05053711 7.11352539 C11.72053711 8.76352539 11.39053711 10.41352539 11.05053711 12.11352539 C12.70053711 12.11352539 14.35053711 12.11352539 16.05053711 12.11352539 C16.71053711 13.76352539 17.37053711 15.41352539 18.05053711 17.11352539 C16.07053711 17.77352539 14.09053711 18.43352539 12.05053711 19.11352539 C12.05053711 20.10352539 12.05053711 21.09352539 12.05053711 22.11352539 C14.36053711 22.77352539 16.67053711 23.43352539 19.05053711 24.11352539 C19.05053711 25.43352539 19.05053711 26.75352539 19.05053711 28.11352539 C11.71311742 30.46149969 4.70659929 30.30707752 -2.94946289 30.11352539 C-3.27946289 28.13352539 -3.60946289 26.15352539 -3.94946289 24.11352539 C0.01053711 23.61852539 0.01053711 23.61852539 4.05053711 23.11352539 C4.38053711 22.12352539 4.71053711 21.13352539 5.05053711 20.11352539 C2.74053711 19.78352539 0.43053711 19.45352539 -1.94946289 19.11352539 C-2.27946289 17.46352539 -2.60946289 15.81352539 -2.94946289 14.11352539 C-0.63946289 13.45352539 1.67053711 12.79352539 4.05053711 12.11352539 C4.05053711 10.79352539 4.05053711 9.47352539 4.05053711 8.11352539 C1.74053711 7.78352539 -0.56946289 7.45352539 -2.94946289 7.11352539 C-2.99200645 5.11397793 -2.99027072 3.11310903 -2.94946289 1.11352539 C-1.94946289 0.11352539 -1.94946289 0.11352539 0 0 Z " transform="translate(179.949462890625,66.886474609375)" style="fill: #F3B100;"/><path d="M0 0 C0 1.98 0 3.96 0 6 C0.928125 5.34 1.85625 4.68 2.8125 4 C6 2 6 2 9 2 C8.67 3.65 8.34 5.3 8 7 C5.69 7 3.38 7 1 7 C1 8.65 1 10.3 1 12 C2.299375 11.979375 3.59875 11.95875 4.9375 11.9375 C6.29165633 11.91600546 7.64756083 11.92851801 9 12 C10 13 10 13 10.0625 16.0625 C10.041875 17.031875 10.02125 18.00125 10 19 C6.9168649 17.80100302 3.93720508 16.52299523 1 15 C1.20625 15.94875 1.4125 16.8975 1.625 17.875 C1.74875 18.90625 1.8725 19.9375 2 21 C1.34 21.66 0.68 22.32 0 23 C-0.33 22.01 -0.66 21.02 -1 20 C-4.51190809 18.77030122 -4.51190809 18.77030122 -8 18 C-7.67 16.68 -7.34 15.36 -7 14 C-5.02 13.67 -3.04 13.34 -1 13 C-1.63979849 10.96758273 -1.63979849 10.96758273 -3 9 C-5.55519921 8.18828772 -5.55519921 8.18828772 -8 8 C-8 6.35 -8 4.7 -8 3 C-1.125 0 -1.125 0 0 0 Z " transform="translate(199,71)" style="fill: #251B00;"/><path d="M0 0 C0.81082031 -0.01224609 1.62164062 -0.02449219 2.45703125 -0.03710938 C3.23691406 -0.03904297 4.01679688 -0.04097656 4.8203125 -0.04296875 C5.52687988 -0.04707764 6.23344727 -0.05118652 6.96142578 -0.05541992 C8.875 0.1875 8.875 0.1875 11.875 2.1875 C11.875 3.8375 11.875 5.4875 11.875 7.1875 C2.305 7.5175 -7.265 7.8475 -17.125 8.1875 C-16.125 3.1875 -16.125 3.1875 -14.125 1.1875 C-9.52772915 -0.18468921 -4.75548458 0.0038166 0 0 Z " transform="translate(201.125,103.8125)" style="fill: #171100;"/><path d="M0 0 C5.02237015 -0.29543354 7.9107578 -0.00679573 12 3 C13 4 13 4 13.02172852 7.51000977 C12.97938623 9.070627 12.93136177 10.6310962 12.87890625 12.19140625 C12.85529526 13.01124496 12.83168427 13.83108368 12.80735779 14.67576599 C12.73053389 17.30484539 12.64659081 19.93364395 12.5625 22.5625 C12.50929803 24.34048086 12.45655752 26.1184756 12.40429688 27.89648438 C12.27489358 32.26450213 12.13910335 36.63228082 12 41 C11.67 41 11.34 41 11 41 C10.67 36.38 10.34 31.76 10 27 C9.67 27 9.34 27 9 27 C9 25.35 9 23.7 9 22 C8.34 22 7.68 22 7 22 C6.7525 22.61875 6.505 23.2375 6.25 23.875 C4.79371361 26.35068687 3.62187494 26.95125002 1 28 C1 26.02 1 24.04 1 22 C7.75 20 7.75 20 10 20 C9.67 19.01 9.34 18.02 9 17 C6.36 16.67 3.72 16.34 1 16 C1 14.35 1 12.7 1 11 C4.37705625 11.53725895 7.696686 12.11064623 11 13 C9.6557137 8.7160107 7.99912952 6.85016912 4.375 4.25 C2.90457807 3.18313235 1.44259291 2.10420692 0 1 C0 0.67 0 0.34 0 0 Z " transform="translate(212,62)" style="fill: #130E00;"/><path d="M0 0 C1.59811523 0.00676758 1.59811523 0.00676758 3.22851562 0.01367188 C5.83990291 0.02538213 8.45117124 0.04178276 11.0625 0.0625 C11.0625 1.7125 11.0625 3.3625 11.0625 5.0625 C1.1625 5.0625 -8.7375 5.0625 -18.9375 5.0625 C-18.9375 3.7425 -18.9375 2.4225 -18.9375 1.0625 C-12.61160373 -0.07705862 -6.41471662 -0.0517637 0 0 Z " transform="translate(202.9375,115.9375)" style="fill: #211700;"/><path d="M0 0 C1.02480469 0.00322266 2.04960937 0.00644531 3.10546875 0.00976562 C4.16894531 0.01814453 5.23242188 0.02652344 6.328125 0.03515625 C7.40707031 0.03966797 8.48601562 0.04417969 9.59765625 0.04882812 C12.25786883 0.06059898 14.91796865 0.07704226 17.578125 0.09765625 C16.918125 1.41765625 16.258125 2.73765625 15.578125 4.09765625 C11.97482611 4.3233922 8.37057801 4.5252475 4.765625 4.72265625 C3.74146484 4.78710938 2.71730469 4.8515625 1.66210938 4.91796875 C0.67919922 4.96953125 -0.30371094 5.02109375 -1.31640625 5.07421875 C-2.22237549 5.12658691 -3.12834473 5.17895508 -4.06176758 5.23291016 C-6.421875 5.09765625 -6.421875 5.09765625 -9.421875 3.09765625 C-9.421875 2.43765625 -9.421875 1.77765625 -9.421875 1.09765625 C-6.21405414 0.14389058 -3.34000104 -0.01855556 0 0 Z " transform="translate(195.421875,126.90234375)" style="fill: #060400;"/><path d="M0 0 C0 3.96 0 7.92 0 12 C-2.97 12 -5.94 12 -9 12 C-9.23827469 9.14070376 -9.43309153 6.80172792 -9 4 C-5.87254514 0.52505016 -4.73718042 0 0 0 Z " transform="translate(317,85)" style="fill: #030200;"/><path d="M0 0 C0 1.98 0 3.96 0 6 C0.928125 5.34 1.85625 4.68 2.8125 4 C6 2 6 2 9 2 C8.67 3.65 8.34 5.3 8 7 C5.69 7 3.38 7 1 7 C1 8.65 1 10.3 1 12 C-2 11 -2 11 -3 9 C-5.52733235 8.34444881 -5.52733235 8.34444881 -8 8 C-8 6.35 -8 4.7 -8 3 C-1.125 0 -1.125 0 0 0 Z " transform="translate(199,71)" style="fill: #1A1300;"/><path d="M0 0 C2.97 0 5.94 0 9 0 C9 3.96 9 7.92 9 12 C3.63666653 9.85466661 2.63986253 8.88863431 0 4 C0 2.68 0 1.36 0 0 Z " transform="translate(308,104)" style="fill: #090700;"/><path d="M0 0 C5 1 5 1 7 3 C7.1953125 5.1640625 7.1953125 5.1640625 7.125 7.625 C7.10695313 8.44226563 7.08890625 9.25953125 7.0703125 10.1015625 C7.03550781 11.04128906 7.03550781 11.04128906 7 12 C4.69 12 2.38 12 0 12 C0 8.04 0 4.08 0 0 Z " transform="translate(324,85)" style="fill: #060400;"/><path d="M0 0 C2.31 0 4.62 0 7 0 C7.32325181 4.12146058 7.39022067 6.3675734 5.1875 9.9375 C3 12 3 12 0 12 C0 8.04 0 4.08 0 0 Z " transform="translate(324,104)" style="fill: #080500;"/><path d="M0 0 C5.02237015 -0.29543354 7.9107578 -0.00679573 12 3 C13 4 13 4 13.09765625 5.84765625 C13.04882812 8.92382812 13.04882812 8.92382812 13 12 C12.67 11.01 12.34 10.02 12 9 C10.16180311 7.95025352 10.16180311 7.95025352 8 7 C6.5614044 6.01030923 5.14443831 4.98849332 3.75 3.9375 C3.04359375 3.41027344 2.3371875 2.88304688 1.609375 2.33984375 C1.07828125 1.89769531 0.5471875 1.45554688 0 1 C0 0.67 0 0.34 0 0 Z " transform="translate(212,62)" style="fill: #0F0B00;"/><path d="M0 0 C0 6.93 0 13.86 0 21 C-0.33 21 -0.66 21 -1 21 C-1.33 16.38 -1.66 11.76 -2 7 C-2.33 7 -2.66 7 -3 7 C-3.04254356 5.00045254 -3.04080783 2.99958364 -3 1 C-2 0 -2 0 0 0 Z " transform="translate(224,82)" style="fill: #2F2100;"/><path d="M0 0 C-0.33 1.65 -0.66 3.3 -1 5 C-3.31 5 -5.62 5 -8 5 C-3.375 0 -3.375 0 0 0 Z " transform="translate(208,73)" style="fill: #080600;"/></svg>