<?xml version="1.0" encoding="UTF-8"?>
<!-- Generator: visioncortex VTracer -->
<svg id="svg" version="1.1" xmlns="http://www.w3.org/2000/svg" style="display: block;" viewBox="0 0 406 194"><path d="M0 0 C133.98 0 267.96 0 406 0 C406 64.02 406 128.04 406 194 C272.02 194 138.04 194 0 194 C0 129.98 0 65.96 0 0 Z " transform="translate(0,0)" style="fill: #010100;"/><path d="M0 0 C1.32 0.66 2.64 1.32 4 2 C4 4.31 4 6.62 4 9 C4.6290625 8.98839844 5.258125 8.97679687 5.90625 8.96484375 C11.38069088 8.90713127 16.58457806 9.19771527 22 10 C22 8.35 22 6.7 22 5 C23.32 4.34 24.64 3.68 26 3 C28.18482695 6.27724043 28.24296998 7.17157864 28.21118164 10.9609375 C28.20780289 11.97470459 28.20442413 12.98847168 28.20094299 14.03295898 C28.18748337 15.13583252 28.17402374 16.23870605 28.16015625 17.375 C28.15495468 18.52750244 28.14975311 19.68000488 28.14439392 20.86743164 C28.12655746 24.57841441 28.09552521 28.28912366 28.0625 32 C27.66500187 67.23468384 27.66500187 67.23468384 30.5625 102.3125 C31.66361408 111.27555559 32.45123322 119.95862327 32 129 C30.68 129 29.36 129 28 129 C26.15855613 125.79748892 25.58871027 123.06459312 25.18359375 119.40625 C24.9976062 117.75399414 24.9976062 117.75399414 24.80786133 116.06835938 C24.68564209 114.89080078 24.56342285 113.71324219 24.4375 112.5 C24.24353638 110.66405273 24.24353638 110.66405273 24.0456543 108.79101562 C21.80098061 86.85841388 21.87930673 65.02187971 22 43 C19.36 43 16.72 43 14 43 C14.495 43.86625 14.99 44.7325 15.5 45.625 C17.96152902 51.33340302 17.75487799 57.92397228 17 64 C15.98828125 66.41015625 15.98828125 66.41015625 14 68 C11.12961948 68.29561076 8.66245255 68.37943016 5.8125 68.25 C5.06291016 68.23195313 4.31332031 68.21390625 3.54101562 68.1953125 C1.6934629 68.14824109 -0.15343159 68.07649766 -2 68 C-1.30803201 70.02130703 -1.30803201 70.02130703 0 72 C2.01017325 72.76850508 2.01017325 72.76850508 4.3125 73 C8.50066331 73.75535313 10.92686587 74.92686587 14 78 C15.37841821 80.75683641 15.09466258 82.95726162 15.0625 86.0390625 C15.05476563 87.25980469 15.04703125 88.48054688 15.0390625 89.73828125 C15.01325636 92.30599196 14.98721903 94.87370036 14.9609375 97.44140625 C14.92121323 103.75094472 15.09556079 109.76007057 16 116 C16.0612491 117.99917047 16.0874994 120.00004774 16.0625 122 C16.05347656 122.94875 16.04445313 123.8975 16.03515625 124.875 C16.02355469 125.57625 16.01195312 126.2775 16 127 C15.01 127.33 14.02 127.66 13 128 C11.26847121 122.58082203 10.45256928 117.40687198 9.9375 111.75 C9.85443604 110.89043701 9.77137207 110.03087402 9.68579102 109.14526367 C9.02854473 102.04997659 8.61663352 94.94900417 8.34155273 87.82910156 C8.53195764 84.10678379 8.53195764 84.10678379 7 81 C5.56469761 80.86898863 4.12641036 80.76992531 2.6875 80.6875 C-0.45519482 80.3582653 -1.78935264 80.14583279 -4.4375 78.3125 C-6.24471233 75.63782575 -7.15329666 73.10457892 -8 70 C-9.7015625 70.2165625 -9.7015625 70.2165625 -11.4375 70.4375 C-15.95353056 71.00301367 -20.47547181 71.50774809 -25 72 C-25.33 70.68 -25.66 69.36 -26 68 C-22.2397529 65.45363601 -19.16944482 64.45277783 -14.6875 63.8125 C-13.61886719 63.65394531 -12.55023438 63.49539062 -11.44921875 63.33203125 C-10.64097656 63.22246094 -9.83273437 63.11289063 -9 63 C-9 60.69 -9 58.38 -9 56 C-9.88042969 56.22816406 -10.76085937 56.45632812 -11.66796875 56.69140625 C-12.82941406 56.97886719 -13.99085938 57.26632813 -15.1875 57.5625 C-16.33605469 57.85253906 -17.48460937 58.14257812 -18.66796875 58.44140625 C-21.88480093 58.98068761 -23.89672783 58.88247476 -27 58 C-26.42655063 55.13275314 -26.1385485 54.1385485 -24 52 C-21.63049745 51.3486109 -19.34669757 50.82215301 -16.9375 50.375 C-16.23882812 50.24311279 -15.54015625 50.11122559 -14.8203125 49.9753418 C-6.88830629 48.61312892 0.98181451 48.73206558 9 49 C9 47.02 9 45.04 9 43 C8.0925 42.9175 7.185 42.835 6.25 42.75 C2.39070433 41.85939331 1.33193961 41.1730489 -1 38 C-1.36119705 35.05281967 -1.49129468 32.49021821 -1.42578125 29.55078125 C-1.42249313 28.73755905 -1.41920502 27.92433685 -1.41581726 27.08647156 C-1.40541438 25.37258874 -1.38549473 23.65874068 -1.35668945 21.94506836 C-1.31248307 19.31149111 -1.29523456 16.67882477 -1.28320312 14.04492188 C-1.26978445 12.38019507 -1.25486296 10.71547955 -1.23828125 9.05078125 C-1.23089432 8.25916092 -1.22350739 7.46754059 -1.21589661 6.65193176 C-1.11830495 1.11830495 -1.11830495 1.11830495 0 0 Z " transform="translate(345,43)" style="fill: #EDAC00;"/><path d="M0 0 C2.475 0.495 2.475 0.495 5 1 C5.41269478 4.37034069 5.61607781 6.96283197 3.83984375 9.953125 C0.96829922 13.44891834 -1.5055443 15.81029114 -6 17 C-6 17.66 -6 18.32 -6 19 C-0.39 19.33 5.22 19.66 11 20 C11.495 21.98 11.495 21.98 12 24 C8.61416198 27.13107836 6.28890538 27.33550778 1.75 27.1875 C-1.09625 27.0946875 -1.09625 27.0946875 -4 27 C-3.34 33.6 -2.68 40.2 -2 47 C-0.47625318 43.19063294 0.27886467 41.05267785 0.625 37.1875 C0.69976562 36.39730469 0.77453125 35.60710937 0.8515625 34.79296875 C0.90054688 34.20128906 0.94953125 33.60960937 1 33 C2.32 33 3.64 33 5 33 C7.51641944 37.02627111 8.51047913 40.03087089 7.7265625 44.7890625 C6.53790805 48.40615077 4.44260383 51.40002744 2.27734375 54.5078125 C0.34090642 58.28593793 0.42071531 61.08751023 1.64868164 65.14160156 C2.55530607 67.64588302 3.54125477 70.10276655 4.5625 72.5625 C4.91948975 73.44421875 5.27647949 74.3259375 5.64428711 75.234375 C8.27740289 81.60641055 11.29217822 87.55592002 14.84765625 93.46875 C16 96 16 96 15.68359375 98.34375 C15.45800781 98.8903125 15.23242188 99.436875 15 100 C12.23223205 99.64872967 11.17143201 99.18638916 9.25390625 97.1015625 C5.57385878 91.71322509 2.57960461 86.36459114 0.04296875 80.34765625 C-1.00647869 77.80707297 -1.00647869 77.80707297 -3 75 C-4.485 86.88 -4.485 86.88 -6 99 C-7.65 99 -9.3 99 -11 99 C-11 93.06 -11 87.12 -11 81 C-16.69939597 81.15751137 -16.69939597 81.15751137 -22.3972168 81.36035156 C-26.34120359 81.41519673 -28.51865004 81.27953396 -32 79.2578125 C-37.57038927 72.96936524 -36.18925846 62.63876414 -36.25 54.6875 C-36.25942627 53.73246582 -36.26885254 52.77743164 -36.27856445 51.79345703 C-36.2247518 40.2247518 -36.2247518 40.2247518 -31.75 35.75 C-26.00976134 32.09712085 -20.66620065 31.45400642 -14 32 C-12.515 32.495 -12.515 32.495 -11 33 C-11.33 34.65 -11.66 36.3 -12 38 C-14.475 38.495 -14.475 38.495 -17 39 C-17.33 41.64 -17.66 44.28 -18 47 C-16.329375 47.433125 -16.329375 47.433125 -14.625 47.875 C-11 49 -11 49 -9 51 C-8.69921875 53.2421875 -8.69921875 53.2421875 -8.6875 55.875 C-8.66236328 57.17050781 -8.66236328 57.17050781 -8.63671875 58.4921875 C-9.06878397 61.4748313 -9.97689269 62.80097032 -12 65 C-14.1875 66.25 -14.1875 66.25 -16 67 C-16 69.31 -16 71.62 -16 74 C-13.69 74.66 -11.38 75.32 -9 76 C-7.52224576 60.11414188 -7.4775695 44.64419068 -11 29 C-11.33 28.67 -11.66 28.34 -12 28 C-13.76025434 28.00771134 -15.52029777 28.0848969 -17.27734375 28.19140625 C-18.34791016 28.24876953 -19.41847656 28.30613281 -20.52148438 28.36523438 C-22.79516341 28.49653316 -25.06860919 28.631937 -27.34179688 28.77148438 C-28.41365234 28.82755859 -29.48550781 28.88363281 -30.58984375 28.94140625 C-31.57847412 29.00013916 -32.56710449 29.05887207 -33.58569336 29.11938477 C-36 29 -36 29 -38 27 C-37.43181818 21.43181818 -37.43181818 21.43181818 -36 20 C-34.28996969 19.98329939 -32.57914122 20.03709142 -30.87109375 20.12109375 C-29.83662109 20.16943359 -28.80214844 20.21777344 -27.73632812 20.26757812 C-26.64771484 20.32365234 -25.55910156 20.37972656 -24.4375 20.4375 C-23.34501953 20.48970703 -22.25253906 20.54191406 -21.12695312 20.59570312 C-18.41770924 20.72584148 -15.70879206 20.86082054 -13 21 C-14.8304464 16.5614039 -14.8304464 16.5614039 -18.375 13.49609375 C-19.24125 13.14675781 -20.1075 12.79742187 -21 12.4375 C-25.05493826 10.6050935 -27.35319312 9.35227532 -29 5 C-29 4.34 -29 3.68 -29 3 C-23.24920682 3.18256486 -19.96357422 3.71501431 -15.3125 7.1875 C-11.92936652 9.68673938 -11.92936652 9.68673938 -7.75 9.875 C-3.944496 7.28033818 -2.1163206 4.02662768 0 0 Z " transform="translate(87,72)" style="fill: #F3B000;"/><path d="M0 0 C3.40502926 0.28375244 4.76257746 0.76917253 7.25 3.1875 C9.13906079 6.22349056 9.67137084 8.46723648 10 12 C10.9075 12.061875 11.815 12.12375 12.75 12.1875 C16.78694323 13.19673581 17.78656764 14.556883 20 18 C21.45925642 22.37776925 21.46536046 26.29367832 20.25 30.75 C18.79030514 33.37745074 17.60488386 34.51149494 15 36 C12.25 36.6875 12.25 36.6875 10 37 C10 38.65 10 40.3 10 42 C11.3303125 41.8453125 11.3303125 41.8453125 12.6875 41.6875 C17.03938306 42.09805501 18.25973354 43.71168025 21 47 C22.84757712 50.69515424 22.34143535 54.95864702 22 59 C20.69766404 62.7699199 19.71194289 64.45235162 16.5625 66.875 C14 68 14 68 10 68 C10 69.32 10 70.64 10 72 C11.15822266 72.37125 11.15822266 72.37125 12.33984375 72.75 C17.10453758 74.98891633 18.26782187 79.23651014 20 84 C22.81098849 93.50629307 24.78921928 103.04706798 24 113 C21.525 113.495 21.525 113.495 19 114 C18.86424561 113.24904053 18.72849121 112.49808105 18.58862305 111.72436523 C17.96346295 108.29378926 17.32560072 104.86569153 16.6875 101.4375 C16.47416016 100.25607422 16.26082031 99.07464844 16.04101562 97.85742188 C15.82509766 96.70693359 15.60917969 95.55644531 15.38671875 94.37109375 C15.19295654 93.31849365 14.99919434 92.26589355 14.79956055 91.18139648 C13.88504255 87.54259219 12.55412441 84.41080508 11 81 C10.98018066 82.18029785 10.96036133 83.3605957 10.93994141 84.57666016 C10.86365344 88.97140201 10.77497216 93.36582276 10.68261719 97.76025391 C10.64442308 99.65927778 10.60955375 101.55837164 10.578125 103.45751953 C10.53226613 106.19328763 10.47430663 108.92857792 10.4140625 111.6640625 C10.39673569 112.93003769 10.39673569 112.93003769 10.37905884 114.22158813 C10.26409604 118.85243885 9.75693706 122.64156315 8 127 C6.68 126.67 5.36 126.34 4 126 C4 110.82 4 95.64 4 80 C-2.19696082 86.19696082 -2.55926274 93.70240333 -3.85546875 102.03515625 C-4.44890769 105.62769522 -4.95191769 107.92787653 -7 111 C-8.32 110.67 -9.64 110.34 -11 110 C-10.67580838 96.46499992 -10.14527588 82.14527588 0 72 C0.99 72 1.98 72 3 72 C3 70.68 3 69.36 3 68 C1.9275 67.9175 0.855 67.835 -0.25 67.75 C-4.31407952 66.9371841 -5.53072559 66.22905115 -8 63 C-9.63900812 58.08297565 -9.60954263 53.12569935 -9 48 C-6.05905429 43.67507984 -3.00149818 42.27945302 2 41 C2 39.68 2 38.36 2 37 C0.741875 36.896875 -0.51625 36.79375 -1.8125 36.6875 C-4.44935727 36.35672815 -5.74549547 36.18061612 -7.9375 34.625 C-10.8209854 30.21496351 -10.44578248 25.05760483 -10 20 C-8.28787732 15.85486087 -5.76264678 13.41884436 -2 11 C0.8125 10.75 0.8125 10.75 3 11 C2.319375 9.9275 1.63875 8.855 0.9375 7.75 C-1.03471002 4.33842267 -1.03471002 4.33842267 -0.75 1.5625 C-0.5025 1.046875 -0.255 0.53125 0 0 Z " transform="translate(176,47)" style="fill: #F2AF00;"/><path d="M0 0 C0.82290527 0.00202423 1.64581055 0.00404846 2.49365234 0.00613403 C3.33331543 0.00517731 4.17297852 0.00422058 5.03808594 0.00323486 C6.81689529 0.00255306 8.59570712 0.00440737 10.37451172 0.00857544 C13.10699011 0.01392371 15.83930411 0.00863048 18.57177734 0.00222778 C20.29573604 0.00288856 22.01969464 0.00416973 23.74365234 0.00613403 C24.56655762 0.0041098 25.38946289 0.00208557 26.23730469 0 C32.0037018 0.02399599 32.0037018 0.02399599 33.11865234 1.13894653 C33.24365234 3.63894653 33.24365234 3.63894653 33.11865234 6.13894653 C30.9993963 8.25820257 26.49904304 7.55725671 23.55615234 7.70144653 C22.74984375 7.74463013 21.94353516 7.78781372 21.11279297 7.83230591 C19.1149643 7.93869915 17.11683165 8.03935541 15.11865234 8.13894653 C14.83960996 11.16734893 14.83960996 11.16734893 16.60302734 13.34597778 C18.58658378 17.00124287 18.44962051 19.6930219 18.36865234 23.82644653 C18.36349609 24.50255981 18.35833984 25.1786731 18.35302734 25.87527466 C18.27417971 30.82789181 18.27417971 30.82789181 17.11865234 33.13894653 C16.47102271 40.03991809 16.67455468 45.32325331 20.22412109 51.31863403 C21.66691968 54.25463464 21.44356857 56.95476756 21.11865234 60.13894653 C20.78865234 60.46894653 20.45865234 60.79894653 20.11865234 61.13894653 C23.60776833 62.88350453 27.61607029 62.60131919 31.46630859 62.85769653 C34.11865234 63.13894653 34.11865234 63.13894653 35.11865234 64.13894653 C35.15929066 65.80511768 35.16137335 67.47282748 35.11865234 69.13894653 C30.65660122 71.3699721 23.8995811 70.18240952 19.11865234 70.13894653 C19.11865234 75.08894653 19.11865234 80.03894653 19.11865234 85.13894653 C24.39865234 85.13894653 29.67865234 85.13894653 35.11865234 85.13894653 C35.44865234 86.78894653 35.77865234 88.43894653 36.11865234 90.13894653 C33.11160281 93.14599607 29.68601985 92.51559865 25.64599609 92.58816528 C24.80774796 92.60990311 23.96949982 92.63164093 23.10585022 92.65403748 C21.33312639 92.69797566 19.56027964 92.73717067 17.78735352 92.77200317 C15.06340723 92.82630192 12.34021368 92.89645337 9.61669922 92.96902466 C7.89732007 93.00967507 6.17791922 93.04941955 4.45849609 93.08816528 C3.22884377 93.11930672 3.22884377 93.11930672 1.97434998 93.15107727 C0.02276571 93.18637206 -1.92966312 93.16817576 -3.88134766 93.13894653 C-4.88134766 92.13894653 -4.88134766 92.13894653 -4.88134766 85.13894653 C0.72865234 85.13894653 6.33865234 85.13894653 12.11865234 85.13894653 C12.11865234 80.51894653 12.11865234 75.89894653 12.11865234 71.13894653 C11.05904297 71.16214966 9.99943359 71.18535278 8.90771484 71.20925903 C7.51970104 71.22801598 6.13167964 71.24621626 4.74365234 71.26394653 C4.04498047 71.28070435 3.34630859 71.29746216 2.62646484 71.31472778 C0.78967748 71.3323892 -1.04736728 71.24197914 -2.88134766 71.13894653 C-4.88134766 69.13894653 -4.88134766 69.13894653 -5.13134766 66.63894653 C-4.88134766 64.13894653 -4.88134766 64.13894653 -2.88134766 62.13894653 C-0.89313453 61.74130391 1.10809574 61.40119305 3.11865234 61.13894653 C2.78091797 60.64265747 2.44318359 60.14636841 2.09521484 59.63504028 C-3.06664095 51.77290732 -4.66544071 45.41339852 -2.88134766 36.13894653 C-2.16631848 33.76429702 -1.35931294 31.44043044 -0.52978516 29.10379028 C0.30429125 26.57643829 0.62979118 24.76766055 0.11865234 22.13894653 C-0.54134766 21.31394653 -1.20134766 20.48894653 -1.88134766 19.63894653 C-3.88134766 17.13894653 -3.88134766 17.13894653 -4.44384766 14.51394653 C-3.88134766 12.13894653 -3.88134766 12.13894653 -1.38134766 10.32644653 C-0.55634766 9.93457153 0.26865234 9.54269653 1.11865234 9.13894653 C0.16990234 9.18019653 -0.77884766 9.22144653 -1.75634766 9.26394653 C-4.88134766 9.13894653 -4.88134766 9.13894653 -6.88134766 7.13894653 C-7.06884766 4.07644653 -7.06884766 4.07644653 -6.88134766 1.13894653 C-5.03858257 -0.70381855 -2.45171007 0.01020242 0 0 Z " transform="translate(205.88134765625,56.861053466796875)" style="fill: #0E0A00;"/><path d="M0 0 C1.32 0 2.64 0 4 0 C5.56682489 3.13364979 5.20502344 6.48733407 5.23828125 9.9296875 C5.246353 10.71642853 5.25442474 11.50316956 5.26274109 12.31375122 C5.27657904 13.97981564 5.2873025 15.64590839 5.29516602 17.31201172 C5.31238701 19.858294 5.35627417 22.40328037 5.40039062 24.94921875 C5.41051702 26.56769878 5.41903329 28.18618985 5.42578125 29.8046875 C5.44328934 30.5652243 5.46079742 31.32576111 5.47883606 32.10934448 C5.46445237 35.61970692 5.2906154 37.61007748 3.16455078 40.46264648 C0.31296308 42.48796205 -1.97819357 42.78358098 -5.4375 43.1875 C-6.54996094 43.32542969 -7.66242188 43.46335938 -8.80859375 43.60546875 C-9.86175781 43.73566406 -10.91492188 43.86585937 -12 44 C-13.66845282 44.32427468 -15.33548676 44.65607479 -17 45 C-17.02505615 45.98991943 -17.0501123 46.97983887 -17.07592773 47.99975586 C-17.30301428 56.91118862 -17.54184064 65.82221849 -17.79589844 74.73292542 C-17.93561694 79.64205262 -18.06279785 84.55130078 -18.18359375 89.4609375 C-18.98959685 118.21552695 -18.98959685 118.21552695 -24 127 C-24.99 127 -25.98 127 -27 127 C-27.21328478 119.62982585 -27.04659227 112.50069709 -26.125 105.1875 C-23.70539813 85.3313672 -22.81065348 65.24505046 -22.8125 45.25 C-22.81169434 44.00903564 -22.81088867 42.76807129 -22.81005859 41.48950195 C-22.7832816 27.62231682 -22.7832816 27.62231682 -25 14 C-25.06743348 11.91765408 -25.08514472 9.83331443 -25.0625 7.75 C-25.04896484 6.13351563 -25.04896484 6.13351563 -25.03515625 4.484375 C-25.02355469 3.66453125 -25.01195312 2.8446875 -25 2 C-24.01 2 -23.02 2 -22 2 C-21.53078125 3.13566406 -21.0615625 4.27132812 -20.578125 5.44140625 C-19.2350287 7.79182477 -18.58112734 8.80661905 -15.98242188 9.67138672 C-13.55064447 9.91446168 -11.19352709 9.96995309 -8.75 9.9375 C-7.90953125 9.95361328 -7.0690625 9.96972656 -6.203125 9.98632812 C-4.13571196 10.02156812 -2.06765974 10.01489055 0 10 C0 6.7 0 3.4 0 0 Z " transform="translate(332,43)" style="fill: #F5B200;"/><path d="M0 0 C3.875 1.875 3.875 1.875 5 3 C5.07579355 5.71843388 5.08624254 8.41026195 5.0534668 11.12817383 C5.04707184 11.98020889 5.04067688 12.83224396 5.03408813 13.71009827 C5.0112032 16.54248605 4.98062225 19.3747259 4.94921875 22.20703125 C4.92999803 24.16899968 4.91094187 26.13096972 4.89204407 28.09294128 C4.85098339 32.21313079 4.8057516 36.33325135 4.75805664 40.45336914 C4.69754136 45.73617027 4.65059611 51.01899493 4.60722637 56.30196095 C4.57187295 60.35719479 4.52763157 64.41229601 4.48087502 68.46741295 C4.45981172 70.41504479 4.44191475 72.36271351 4.4272213 74.31040382 C4.40566202 77.03501453 4.3717461 79.75920423 4.3347168 82.48364258 C4.32911995 83.69401184 4.32911995 83.69401184 4.32341003 84.92883301 C4.25874672 88.74698989 4.15905747 91.76338224 2 95 C0.68 94.67 -0.64 94.34 -2 94 C-2 81.13 -2 68.26 -2 55 C-3.65 54.67 -5.3 54.34 -7 54 C-7.24234375 55.05058594 -7.4846875 56.10117188 -7.734375 57.18359375 C-9.54599014 64.83830561 -11.46216562 71.92433125 -15 79 C-15.99 79 -16.98 79 -18 79 C-18.39464428 72.39336238 -17.6156319 66.79271862 -15.85546875 60.4296875 C-14.65783393 55.62821092 -13.89776478 50.7689314 -13.1784668 45.87475586 C-12.49911969 41.63366765 -11.4792839 38.51920575 -9 35 C-7.68 35.33 -6.36 35.66 -5 36 C-4.93941406 36.63808594 -4.87882812 37.27617188 -4.81640625 37.93359375 C-4.73261719 38.75988281 -4.64882813 39.58617187 -4.5625 40.4375 C-4.48128906 41.26121094 -4.40007813 42.08492187 -4.31640625 42.93359375 C-4.21069185 44.98662025 -4.21069185 44.98662025 -3 46 C-2.88395321 42.5627834 -2.81280492 39.12606914 -2.75 35.6875 C-2.71648438 34.71103516 -2.68296875 33.73457031 -2.6484375 32.72851562 C-2.62910156 31.32182617 -2.62910156 31.32182617 -2.609375 29.88671875 C-2.5779541 28.59060669 -2.5779541 28.59060669 -2.54589844 27.26831055 C-2.80628136 24.83736312 -2.80628136 24.83736312 -4.89941406 23.19458008 C-6.88700535 21.83521912 -6.88700535 21.83521912 -9 22 C-9.33773437 23.12019531 -9.67546875 24.24039063 -10.0234375 25.39453125 C-10.47370046 26.86726636 -10.92423553 28.33991831 -11.375 29.8125 C-11.59671875 30.55048828 -11.8184375 31.28847656 -12.046875 32.04882812 C-12.26601563 32.76103516 -12.48515625 33.47324219 -12.7109375 34.20703125 C-12.90993652 34.8616333 -13.10893555 35.51623535 -13.31396484 36.19067383 C-14 38 -14 38 -16 41 C-17.32 41 -18.64 41 -20 41 C-19.66905925 33.81858569 -18.05859675 27.41535569 -15.98046875 20.55078125 C-14.78143051 16.20844756 -14.0837252 11.88645838 -13.4921875 7.42578125 C-13 5 -13 5 -11 2 C-9.0703125 2.71875 -9.0703125 2.71875 -7 4 C-6.2421875 6.09375 -6.2421875 6.09375 -5.875 8.5 C-5.35240636 12.17211988 -5.35240636 12.17211988 -3 15 C-2.95101562 14.08476563 -2.90203125 13.16953125 -2.8515625 12.2265625 C-2.77679688 11.03804687 -2.70203125 9.84953125 -2.625 8.625 C-2.55539063 7.44164063 -2.48578125 6.25828125 -2.4140625 5.0390625 C-2 2 -2 2 0 0 Z " transform="translate(44,77)" style="fill: #EFAD00;"/><path d="M0 0 C2.66408954 0.97683283 3.78354224 1.58379351 5.11328125 4.140625 C6.17200822 7.55466969 6.30103875 10.49040949 6.3125 14.0625 C6.32925781 15.27035156 6.34601563 16.47820312 6.36328125 17.72265625 C6 21 6 21 4.9921875 23.41796875 C1.88015318 25.88929012 -1.4032945 25.42185911 -5.1875 25.25 C-5.93708984 25.23195313 -6.68667969 25.21390625 -7.45898438 25.1953125 C-9.3065371 25.14824109 -11.15343159 25.07649766 -13 25 C-12.30803201 27.02130703 -12.30803201 27.02130703 -11 29 C-8.98982675 29.76850508 -8.98982675 29.76850508 -6.6875 30 C-2.49933669 30.75535313 -0.07313413 31.92686587 3 35 C4.37841821 37.75683641 4.09466258 39.95726162 4.0625 43.0390625 C4.05476563 44.25980469 4.04703125 45.48054688 4.0390625 46.73828125 C4.01325636 49.30599196 3.98721903 51.87370036 3.9609375 54.44140625 C3.92121323 60.75094472 4.09556079 66.76007057 5 73 C5.0612491 74.99917047 5.0874994 77.00004774 5.0625 79 C5.05347656 79.94875 5.04445313 80.8975 5.03515625 81.875 C5.02355469 82.57625 5.01195312 83.2775 5 84 C4.01 84.33 3.02 84.66 2 85 C0.26847121 79.58082203 -0.54743072 74.40687198 -1.0625 68.75 C-1.14556396 67.89043701 -1.22862793 67.03087402 -1.31420898 66.14526367 C-1.97145527 59.04997659 -2.38336648 51.94900417 -2.65844727 44.82910156 C-2.46804236 41.10678379 -2.46804236 41.10678379 -4 38 C-5.43530239 37.86898863 -6.87358964 37.76992531 -8.3125 37.6875 C-11.45519482 37.3582653 -12.78935264 37.14583279 -15.4375 35.3125 C-17.24471233 32.63782575 -18.15329666 30.10457892 -19 27 C-20.7015625 27.2165625 -20.7015625 27.2165625 -22.4375 27.4375 C-26.95353056 28.00301367 -31.47547181 28.50774809 -36 29 C-36.33 27.68 -36.66 26.36 -37 25 C-33.2397529 22.45363601 -30.16944482 21.45277783 -25.6875 20.8125 C-24.61886719 20.65394531 -23.55023438 20.49539062 -22.44921875 20.33203125 C-21.64097656 20.22246094 -20.83273437 20.11289063 -20 20 C-20 17.69 -20 15.38 -20 13 C-20.88042969 13.22816406 -21.76085937 13.45632812 -22.66796875 13.69140625 C-23.82941406 13.97886719 -24.99085938 14.26632813 -26.1875 14.5625 C-27.33605469 14.85253906 -28.48460937 15.14257812 -29.66796875 15.44140625 C-32.88480093 15.98068761 -34.89672783 15.88247476 -38 15 C-37.42655063 12.13275314 -37.1385485 11.1385485 -35 9 C-27.646983 6.61688923 -20.01488994 6.7543213 -12.375 6.875 C-10.72564453 6.88853516 -10.72564453 6.88853516 -9.04296875 6.90234375 C-6.36174242 6.92565876 -3.68099393 6.9583796 -1 7 C-1.020625 6.030625 -1.04125 5.06125 -1.0625 4.0625 C-1 1 -1 1 0 0 Z " transform="translate(356,86)" style="fill: #F1AF00;"/><path d="M0 0 C0.9605127 0.00410889 1.92102539 0.00821777 2.91064453 0.01245117 C3.97798828 0.01438477 5.04533203 0.01631836 6.14501953 0.01831055 C7.82724609 0.03667969 7.82724609 0.03667969 9.54345703 0.05541992 C11.16767578 0.05638672 11.16767578 0.05638672 12.82470703 0.05737305 C33.59444215 0.16890504 33.59444215 0.16890504 35.66845703 2.24291992 C35.70909535 3.90909107 35.71117803 5.57680087 35.66845703 7.24291992 C31.2064059 9.47394549 24.44938579 8.28638291 19.66845703 8.24291992 C19.66845703 13.19291992 19.66845703 18.14291992 19.66845703 23.24291992 C24.94845703 23.24291992 30.22845703 23.24291992 35.66845703 23.24291992 C36.16345703 25.71791992 36.16345703 25.71791992 36.66845703 28.24291992 C33.6614075 31.24996945 30.23582454 30.61957203 26.19580078 30.69213867 C25.35755264 30.7138765 24.5193045 30.73561432 23.65565491 30.75801086 C21.88293108 30.80194905 20.11008433 30.84114406 18.3371582 30.87597656 C15.61321192 30.9302753 12.89001837 31.00042676 10.16650391 31.07299805 C8.44712476 31.11364846 6.7277239 31.15339294 5.00830078 31.19213867 C3.77864845 31.22328011 3.77864845 31.22328011 2.52415466 31.25505066 C0.57257039 31.29034545 -1.37985843 31.27214914 -3.33154297 31.24291992 C-4.33154297 30.24291992 -4.33154297 30.24291992 -4.33154297 23.24291992 C1.27845703 23.24291992 6.88845703 23.24291992 12.66845703 23.24291992 C12.66845703 18.62291992 12.66845703 14.00291992 12.66845703 9.24291992 C11.60884766 9.26612305 10.54923828 9.28932617 9.45751953 9.31323242 C8.06950573 9.33198937 6.68148433 9.35018965 5.29345703 9.36791992 C4.24544922 9.39305664 4.24544922 9.39305664 3.17626953 9.41870117 C1.33948217 9.43636259 -0.49756259 9.34595253 -2.33154297 9.24291992 C-4.33154297 7.24291992 -4.33154297 7.24291992 -4.58154297 4.74291992 C-4.24428473 1.37033758 -3.40399583 0.35465716 0 0 Z " transform="translate(205.33154296875,118.757080078125)" style="fill: #F4B100;"/><path d="M0 0 C1.32 0 2.64 0 4 0 C4.33 2.31 4.66 4.62 5 7 C9.95 7 14.9 7 20 7 C20 4.69 20 2.38 20 0 C21.9375 0.3125 21.9375 0.3125 24 1 C26.38412969 8.15238908 26.15928538 18.07966061 23 25 C20.69903973 27.89475647 19.06966311 28.8584506 15.40234375 29.34375 C11.35422784 29.47451014 7.87462987 29.27332184 4 28.0625 C-1.80715647 22.07386989 -1.30584025 13.89677933 -1.203125 6.0390625 C-1 3 -1 3 0 0 Z " transform="translate(325,125)" style="fill: #F1AE00;"/><path d="M0 0 C0.99 0 1.98 0 3 0 C5.30844801 6.34823202 5.19818283 12.29481414 5 19 C6.32 18.67 7.64 18.34 9 18 C9.33 12.72 9.66 7.44 10 2 C14 3 14 3 16 6 C16.71598325 12.13484595 17.33650931 18.01432902 13.8125 23.25 C11.23841768 24.85165122 8.8059972 25.89236953 6 27 C4.19651922 29.01317219 4.19651922 29.01317219 3 31 C2.01 30.67 1.02 30.34 0 30 C-0.33 29.01 -0.66 28.02 -1 27 C-2.5778125 26.938125 -2.5778125 26.938125 -4.1875 26.875 C-9.24368596 25.71456388 -10.13477855 24.21356096 -13 20 C-14.18681726 16.43954823 -14.09689832 13.56191663 -14.0625 9.8125 C-14.05347656 8.54019531 -14.04445313 7.26789062 -14.03515625 5.95703125 C-14.02355469 4.98121094 -14.01195313 4.00539063 -14 3 C-12.125 2.375 -12.125 2.375 -10 2 C-7.43342872 4.56657128 -7.65999328 5.87287369 -7.4375 9.4375 C-7.23248694 12.57963901 -7.00035227 14.99894319 -6 18 C-3.99983534 19.20882096 -3.99983534 19.20882096 -2 20 C-2.02320313 18.80761719 -2.04640625 17.61523438 -2.0703125 16.38671875 C-2.08907178 14.82031876 -2.10727181 13.253912 -2.125 11.6875 C-2.14175781 10.90181641 -2.15851562 10.11613281 -2.17578125 9.30664062 C-2.18222656 8.54931641 -2.18867187 7.79199219 -2.1953125 7.01171875 C-2.20578613 6.31522217 -2.21625977 5.61872559 -2.22705078 4.90112305 C-2 3 -2 3 0 0 Z " transform="translate(42,45)" style="fill: #E9A900;"/><path d="M0 0 C3.875 0.875 3.875 0.875 5 2 C5.39943176 4.52195967 5.75079848 7.02963656 6.0625 9.5625 C6.15337891 10.27341797 6.24425781 10.98433594 6.33789062 11.71679688 C6.56239503 13.47738403 6.78168397 15.23863478 7 17 C7.66 17 8.32 17 9 17 C9.33 11.72 9.66 6.44 10 1 C14 2 14 2 15.23046875 3.72265625 C16.9922382 8.93642066 16.79409365 14.88241694 14.875 20 C13 22 13 22 9.9375 23.5 C6.80228772 24.73942812 6.80228772 24.73942812 5.625 27.6875 C5.315625 28.8321875 5.315625 28.8321875 5 30 C3.68 30 2.36 30 1 30 C0.76152344 29.38125 0.52304688 28.7625 0.27734375 28.125 C-1.32371803 25.46145992 -2.55754628 25.05929332 -5.4375 24 C-8.98185403 22.54357202 -11.21886664 21.56226672 -13 18 C-14.04224317 14.70563698 -14.10348991 11.69315228 -14.0625 8.25 C-14.05347656 7.26515625 -14.04445312 6.2803125 -14.03515625 5.265625 C-14.02355469 4.51796875 -14.01195312 3.7703125 -14 3 C-11.6875 2.3125 -11.6875 2.3125 -9 2 C-7.23046875 3.08203125 -7.23046875 3.08203125 -6 5 C-5.48828125 7.69921875 -5.48828125 7.69921875 -5.3125 10.6875 C-5.21388672 12.17830078 -5.21388672 12.17830078 -5.11328125 13.69921875 C-5.07589844 14.45847656 -5.03851563 15.21773437 -5 16 C-2.525 16.99 -2.525 16.99 0 18 C-0.33 17.01 -0.66 16.02 -1 15 C-1.09467365 12.81415251 -1.12988914 10.62539133 -1.125 8.4375 C-1.12757812 7.28121094 -1.13015625 6.12492187 -1.1328125 4.93359375 C-1 2 -1 2 0 0 Z " transform="translate(77,45)" style="fill: #EEAD00;"/><path d="M0 0 C2.3125 0.1875 2.3125 0.1875 5 1 C8.29142691 5.12401008 8.35121294 8.5205796 8.25 13.6875 C8.24484375 14.36361328 8.2396875 15.03972656 8.234375 15.73632812 C8.15552736 20.68894527 8.15552736 20.68894527 7 23 C6.35289007 29.89543372 6.54582077 35.19051588 10.109375 41.17578125 C11.57191808 44.17142869 11.27286625 46.72560494 11 50 C9.68 50 8.36 50 7 50 C5.11328125 47.515625 5.11328125 47.515625 3.3125 44.25 C2.71050781 43.18265625 2.10851562 42.1153125 1.48828125 41.015625 C-1.61151134 34.73468043 -2.18965186 27.64330881 0 20.9375 C0.33 19.968125 0.66 18.99875 1 18 C1.4953752 12.33238597 1.4953752 12.33238597 0 7 C-0.04022391 4.6670134 -0.04320247 2.33293334 0 0 Z " transform="translate(216,67)" style="fill: #EEAD00;"/><path d="M0 0 C2.40773023 0.2311421 3.66770288 0.70617939 5.484375 2.3125 C8.50619729 6.34159639 9.70932412 9.4167867 9.44140625 14.47265625 C8.73057403 18.5426425 7.28176817 22.32900492 5.90625 26.21484375 C3.75709962 32.81977573 5.21656649 36.95137815 8.109375 42.91015625 C9.1595473 45.37437634 9.34239884 47.34640897 9 50 C7.02 50.495 7.02 50.495 5 51 C-0.03155759 43.60629896 -2.62352838 37.62311766 -1.4921875 28.55859375 C-0.85245028 25.23297568 0.22075026 22.1501515 1.3515625 18.96484375 C2.1856389 16.43749176 2.51113884 14.62871402 2 12 C1.34 11.175 0.68 10.35 0 9.5 C-2 7 -2 7 -2.375 4.3125 C-2 2 -2 2 0 0 Z " transform="translate(204,67)" style="fill: #EEAD00;"/><path d="M0 0 C1.67542976 0.28604898 3.34385343 0.61781233 5 1 C7.77385184 7.76126385 7.47867966 13.9762716 6 21 C5.52225115 26.96818558 6.83665683 30.5159911 9.5625 35.625 C13.07563746 42.21461377 13.07563746 42.21461377 12.71484375 45.9609375 C12.47894531 46.63382813 12.24304688 47.30671875 12 48 C9.16872595 47.66367155 8.21133489 47.26507285 6.40234375 44.99609375 C1.74426135 36.85997649 -1.64495572 30.51309685 -1 21 C-0.67 20.01 -0.34 19.02 0 18 C0.17853669 12.82243594 -0.16639293 7.91349283 -0.87890625 2.78515625 C-0.91886719 2.19605469 -0.95882812 1.60695313 -1 1 C-0.67 0.67 -0.34 0.34 0 0 Z " transform="translate(228,67)" style="fill: #EAAA00;"/><path d="M0 0 C0.82290527 0.00202423 1.64581055 0.00404846 2.49365234 0.00613403 C3.33331543 0.00517731 4.17297852 0.00422058 5.03808594 0.00323486 C6.81689529 0.00255306 8.59570712 0.00440737 10.37451172 0.00857544 C13.10699011 0.01392371 15.83930411 0.00863048 18.57177734 0.00222778 C20.29573604 0.00288856 22.01969464 0.00416973 23.74365234 0.00613403 C24.56655762 0.0041098 25.38946289 0.00208557 26.23730469 0 C32.0037018 0.02399599 32.0037018 0.02399599 33.11865234 1.13894653 C33.24365234 3.63894653 33.24365234 3.63894653 33.11865234 6.13894653 C31.43780099 7.81979789 29.31720423 7.3671678 27.00927734 7.45535278 C25.94966797 7.49740845 24.89005859 7.53946411 23.79833984 7.58279419 C22.66654297 7.62194946 21.53474609 7.66110474 20.36865234 7.70144653 C19.23169922 7.74317993 18.09474609 7.78491333 16.92333984 7.82791138 C-0.97314513 8.45500503 -0.97314513 8.45500503 -5.88134766 8.13894653 C-6.88134766 7.13894653 -6.88134766 7.13894653 -7.00634766 4.13894653 C-6.78939649 -1.06788146 -4.66700973 0.01942105 0 0 Z " transform="translate(205.88134765625,56.861053466796875)" style="fill: #F8B400;"/><path d="M0 0 C1.13824219 0.01289062 2.27648437 0.02578125 3.44921875 0.0390625 C6.3125 0.375 6.3125 0.375 8.3125 2.375 C8.64653016 5.38127147 8.85745422 7.47844983 8.3125 10.375 C5.97406149 12.95534594 4.07112026 13.28634467 0.671875 13.68359375 C-6.67951654 14.00791985 -6.67951654 14.00791985 -10.375 11.6875 C-11.97931863 8.86084336 -12.40500953 7.56393126 -11.6875 4.375 C-7.89145364 0.55093854 -5.32410517 -0.13355794 0 0 Z " transform="translate(183.6875,94.625)" style="fill: #0F0B00;"/><path d="M0 0 C0.33 0 0.66 0 1 0 C3.13369429 14.66914823 3.73373036 28.3061993 1 43 C-5.875 42.125 -5.875 42.125 -7 41 C-7.4375 37.6875 -7.4375 37.6875 -7 34 C-4.0625 31.6875 -4.0625 31.6875 -1 30 C0.26237731 27.47524538 0.09856404 25.68799534 0.0625 22.875 C0.05347656 21.96492188 0.04445313 21.05484375 0.03515625 20.1171875 C0.02355469 19.41851562 0.01195313 18.71984375 0 18 C-2.64 16.68 -5.28 15.36 -8 14 C-8 11.36 -8 8.72 -8 6 C-7.05125 5.7525 -6.1025 5.505 -5.125 5.25 C-1.91306809 4.3142923 -1.91306809 4.3142923 -0.625 1.875 C-0.41875 1.25625 -0.2125 0.6375 0 0 Z " transform="translate(77,105)" style="fill: #110C00;"/><path d="M0 0 C0.845625 0.00386719 1.69125 0.00773437 2.5625 0.01171875 C5.1648321 0.33283986 6.81502164 0.87061113 9 2.3125 C9.75 4.9375 9.75 4.9375 10 7.3125 C6.57168336 10.49653855 4.0440565 10.71894407 -0.5625 10.6875 C-1.69816406 10.69523437 -2.83382812 10.70296875 -4.00390625 10.7109375 C-7 10.3125 -7 10.3125 -8.90625 8.9140625 C-10 7.3125 -10 7.3125 -9.9375 5.3125 C-7.87683012 0.91640425 -4.61347601 -0.09142559 0 0 Z " transform="translate(181,65.6875)" style="fill: #0A0700;"/><path d="M0 0 C4.95 0 9.9 0 15 0 C15.29296875 6.8359375 15.29296875 6.8359375 15 9 C12.00261059 10.99825961 11.36652492 11.27550398 8 11.25 C7.319375 11.25515625 6.63875 11.2603125 5.9375 11.265625 C4 11 4 11 1 9 C0.2918906 6.00539996 0.22018872 3.08264211 0 0 Z " transform="translate(330,137)" style="fill: #070500;"/><path d="M0 0 C5.61 0 11.22 0 17 0 C17 6 17 6 15 8 C12.41935871 8.14497985 9.95056116 8.18677545 7.375 8.125 C6.66859375 8.11597656 5.9621875 8.10695313 5.234375 8.09765625 C3.48943902 8.07407603 1.74467705 8.03820461 0 8 C0 5.36 0 2.72 0 0 Z " transform="translate(315,73)" style="fill: #0A0700;"/><path d="M0 0 C1.27230469 0.00902344 2.54460937 0.01804688 3.85546875 0.02734375 C5.31919922 0.04474609 5.31919922 0.04474609 6.8125 0.0625 C6.8125 2.7025 6.8125 5.3425 6.8125 8.0625 C1.2025 8.0625 -4.4075 8.0625 -10.1875 8.0625 C-10.1875 5.7525 -10.1875 3.4425 -10.1875 1.0625 C-6.62704823 -0.12431726 -3.74941663 -0.03439832 0 0 Z " transform="translate(325.1875,58.9375)" style="fill: #060400;"/><path d="M0 0 C5.61 0 11.22 0 17 0 C17 2.64 17 5.28 17 8 C14.72975032 8.08097324 12.45867925 8.13917704 10.1875 8.1875 C8.29064453 8.23970703 8.29064453 8.23970703 6.35546875 8.29296875 C3 8 3 8 1.05078125 6.80078125 C0 5 0 5 0 0 Z " transform="translate(349,72)" style="fill: #0F0A00;"/><path d="M0 0 C1.93166016 0.01740234 1.93166016 0.01740234 3.90234375 0.03515625 C5.19269531 0.04417969 6.48304688 0.05320312 7.8125 0.0625 C8.81152344 0.07410156 9.81054688 0.08570312 10.83984375 0.09765625 C11.83984375 2.09765625 11.83984375 2.09765625 11.83984375 8.09765625 C6.55984375 8.09765625 1.27984375 8.09765625 -4.16015625 8.09765625 C-4.16015625 0.1285586 -4.16015625 0.1285586 0 0 Z " transform="translate(346.16015625,97.90234375)" style="fill: #110C00;"/><path d="M0 0 C5.61 0 11.22 0 17 0 C17 2.31 17 4.62 17 7 C11.39 7 5.78 7 0 7 C0 4.69 0 2.38 0 0 Z " transform="translate(349,59)" style="fill: #000000;"/><path d="M0 0 C0.66 0.66 1.32 1.32 2 2 C1.67 3.65 1.34 5.3 1 7 C-3.95 7 -8.9 7 -14 7 C-14.33 5.68 -14.66 4.36 -15 3 C-9.66553 0.332765 -5.97496094 -0.50635262 0 0 Z " transform="translate(71,125)" style="fill: #171000;"/><path d="M0 0 C2.475 0.495 2.475 0.495 5 1 C5.33 3.64 5.66 6.28 6 9 C1.125 8.125 1.125 8.125 0 7 C-0.04092937 4.66702567 -0.04241723 2.33294775 0 0 Z " transform="translate(58,138)" style="fill: #110C00;"/><path d="M0 0 C0 2.97 0 5.94 0 9 C-1.65 9 -3.3 9 -5 9 C-5.36666667 3.5 -5.36666667 3.5 -3.625 1.125 C-2 0 -2 0 0 0 Z " transform="translate(63,111)" style="fill: #171100;"/></svg>