<?xml version="1.0" encoding="UTF-8"?>
<!-- Generator: visioncortex VTracer -->
<svg id="svg" version="1.1" xmlns="http://www.w3.org/2000/svg" style="display: block;" viewBox="0 0 538 204"><path d="M0 0 C177.54 0 355.08 0 538 0 C538 67.32 538 134.64 538 204 C360.46 204 182.92 204 0 204 C0 136.68 0 69.36 0 0 Z " transform="translate(0,0)" style="fill: #010000;"/><path d="M0 0 C6.58316715 2.82135735 10.4551386 9.02970712 14 15 C14.66 15 15.32 15 16 15 C18.09775397 12.24386004 19.99846911 9.37870473 21.9296875 6.50390625 C24 4 24 4 26.2578125 3.15234375 C27.12019531 3.07693359 27.12019531 3.07693359 28 3 C27.835 4.216875 27.67 5.43375 27.5 6.6875 C27.37421908 8.89434201 27.37421908 8.89434201 28 11 C30.40408404 13.21956005 33.04393189 14.62753981 36 16 C36.226875 15.071875 36.45375 14.14375 36.6875 13.1875 C38.28443337 9.30923325 39.22926542 8.7112169 43 7 C45.76457615 6.71107913 48.24663984 6.57928 51 6.625 C51.69867188 6.61339844 52.39734375 6.60179687 53.1171875 6.58984375 C57.58760917 6.61514802 60.56092234 7.08906641 64 10 C67.74653339 15.25329138 67.38939056 20.49793249 67.25 26.6875 C67.23686768 27.66976562 67.22373535 28.65203125 67.21020508 29.6640625 C66.87325651 49.46677641 66.87325651 49.46677641 63 55 C60.04473066 57.216452 58.71253164 58 55 58 C55 58.99 55 59.98 55 61 C55.67546875 61.08636719 56.3509375 61.17273438 57.046875 61.26171875 C64.27719188 62.40059814 64.27719188 62.40059814 67.5625 65.125 C69.3861876 68.77237521 70.2391927 71.90980483 70 76 C68.5625 79.5 68.5625 79.5 67 82 C64.36 82 61.72 82 59 82 C56.16541842 87.66916316 58.00738394 94.79048836 59.6875 100.5625 C62.17176459 107.98914361 65.42464758 114.09206051 70.3125 120.1875 C72.50537314 122.98607723 72.98007056 123.81399187 73.375 127.5 C73.25125 128.325 73.1275 129.15 73 130 C71.68 130.33 70.36 130.66 69 131 C63.38875313 125.76184135 59.77309638 120.14260155 56.5625 113.25 C56.22089844 112.51724854 55.87929688 111.78449707 55.52734375 111.02954102 C52.45007567 104.17996133 51.72998441 98.08671932 51.5625 90.625 C51.51673828 89.8 51.47097656 88.975 51.42382812 88.125 C51.31924655 82.39574855 52.48974416 79.46192437 56.42211914 75.28442383 C58.52060324 73.57621946 60.31213286 73.07905492 63 73 C62.34 71.68 61.68 70.36 61 69 C55.26757558 68.65605453 50.90776219 68.61130706 46 72 C37.80961751 83.6290927 38.31192256 100.31432166 37.59545898 114.01733398 C37.52915283 115.27876221 37.46284668 116.54019043 37.39453125 117.83984375 C37.31489136 119.54708618 37.31489136 119.54708618 37.23364258 121.28881836 C37 124 37 124 36 126 C34.35 125.67 32.7 125.34 31 125 C30.97072368 121.47918442 30.95310881 117.95840061 30.9375 114.4375 C30.92912109 113.44685547 30.92074219 112.45621094 30.91210938 111.43554688 C30.89463086 106.17451301 31.07691602 101.18235335 32 96 C31.42636719 96.02320313 30.85273438 96.04640625 30.26171875 96.0703125 C20.73808129 96.2726356 11.45259248 95.07263461 2 94 C2 105.88 2 117.76 2 130 C0.68 130 -0.64 130 -2 130 C-4.25821886 123.64988856 -4.38486118 117.63965286 -4.375 110.9375 C-4.37338867 109.79659912 -4.37177734 108.65569824 -4.37011719 107.48022461 C-4.17150025 93.44560159 -2.3430689 79.00972106 3.265625 66.0234375 C4.22744012 63.73209342 4.22744012 63.73209342 4 60 C2.21858253 59.13641377 2.21858253 59.13641377 0 59 C-0.639375 59.66 -1.27875 60.32 -1.9375 61 C-2.618125 61.66 -3.29875 62.32 -4 63 C-6.75 62.75 -6.75 62.75 -9 62 C-7.38098291 53.03617365 3.23531623 45.47456995 10 40 C10.66 40 11.32 40 12 40 C11.93950287 37.62246262 11.85232887 35.25080939 11.75 32.875 C11.73582031 32.20984375 11.72164063 31.5446875 11.70703125 30.859375 C11.45113231 25.63903668 10.11202852 22.99584462 7 19 C2.29545495 19.47045451 -1.09878129 20.90484722 -5.16796875 23.16015625 C-7 24 -7 24 -10 24 C-10.33 22.35 -10.66 20.7 -11 19 C-7.04 16.36 -3.08 13.72 1 11 C0.34 9.35 -0.32 7.7 -1 6 C-1.1875 3.25 -1.1875 3.25 -1 1 C-0.67 0.67 -0.34 0.34 0 0 Z " transform="translate(448,43)" style="fill: #F2AF00;"/><path d="M0 0 C1.02287109 -0.01611328 2.04574219 -0.03222656 3.09960938 -0.04882812 C4.5759082 -0.04979492 4.5759082 -0.04979492 6.08203125 -0.05078125 C6.96737549 -0.05376221 7.85271973 -0.05674316 8.76489258 -0.05981445 C11.63930793 0.38193536 13.02754869 1.41418985 15.1875 3.3125 C14.8575 4.6325 14.5275 5.9525 14.1875 7.3125 C9.8975 7.3125 5.6075 7.3125 1.1875 7.3125 C0.8575 11.6025 0.5275 15.8925 0.1875 20.3125 C4.1475 19.8175 4.1475 19.8175 8.1875 19.3125 C8.5175 17.9925 8.8475 16.6725 9.1875 15.3125 C10.85361905 15.269779 12.52132885 15.27186168 14.1875 15.3125 C16.28236575 17.40736575 15.40039397 21.9515036 15.42578125 24.84375 C15.433853 25.70883179 15.44192474 26.57391357 15.45024109 27.46520996 C15.46410651 29.30458562 15.47481761 31.14398727 15.48266602 32.98339844 C15.49975982 35.77330004 15.5436076 38.56197954 15.58789062 41.3515625 C15.5980279 43.1406163 15.60654075 44.92968018 15.61328125 46.71875 C15.63078934 47.54411255 15.64829742 48.3694751 15.66633606 49.21984863 C15.64442487 55.18844032 14.40374102 60.21677359 11.1875 65.3125 C4.74487128 69.60758581 -4.32414279 69.08623762 -11.8125 68.3125 C-16.23544059 66.47919935 -18.87092011 62.4556578 -21.01000977 58.27172852 C-24.70698355 49.24580377 -24.15276375 39.22602119 -24.12817383 29.65234375 C-24.12498991 27.05426963 -24.14862208 24.45731096 -24.17382812 21.859375 C-24.17609941 20.19270975 -24.17680541 18.52604148 -24.17578125 16.859375 C-24.184991 16.09050964 -24.19420074 15.32164429 -24.20368958 14.52947998 C-24.16298472 9.77165127 -23.55783901 6.37375129 -20.8125 2.3125 C-14.98131827 -0.88489662 -6.45882945 -0.02074126 0 0 Z " transform="translate(220.8125,96.6875)" style="fill: #F1AF00;"/><path d="M0 0 C1.875 0.5 1.875 0.5 4 2 C6.15976195 8.50938707 6.27183675 14.62397861 6.1875 21.4375 C6.18685547 22.42298828 6.18621094 23.40847656 6.18554688 24.42382812 C6.09226727 40.06370802 6.09226727 40.06370802 3.625 44.4375 C-3.35999819 48.59523702 -12.10502068 48.2505726 -20 48 C-19.98477295 49.05429199 -19.9695459 50.10858398 -19.95385742 51.19482422 C-19.84463312 62.31658318 -20.3054936 73.33252093 -21.11694336 84.42333984 C-21.31280515 87.12921577 -21.49184263 89.8358711 -21.66992188 92.54296875 C-23.5980709 120.38360581 -23.5980709 120.38360581 -28 128 C-28.99 127.67 -29.98 127.34 -31 127 C-31.05500566 124.24971712 -31.09414412 121.50058113 -31.125 118.75 C-31.14175781 117.99203125 -31.15851562 117.2340625 -31.17578125 116.453125 C-31.22261947 110.83253864 -30.50026208 105.58148342 -29.51220703 100.0546875 C-26.64644505 82.96392778 -26.78465792 65.25790058 -26.70245361 47.97503662 C-26.69255271 45.92247817 -26.67809038 43.86993623 -26.65887451 41.81744385 C-26.63492826 38.89629847 -26.63259879 35.97591383 -26.63671875 33.0546875 C-26.62759964 32.18890076 -26.61848053 31.32311401 -26.60908508 30.43109131 C-26.64950913 24.9598173 -27.5634411 20.3465551 -29.32791138 15.16436768 C-30.2014542 12.35124486 -30.30027051 9.80703334 -30.1875 6.875 C-30.16042969 5.94429687 -30.13335938 5.01359375 -30.10546875 4.0546875 C-30.07066406 3.37664063 -30.03585938 2.69859375 -30 2 C-28.68 2 -27.36 2 -26 2 C-22 8.75 -22 8.75 -22 11 C-15.07 11 -8.14 11 -1 11 C-1 7.7 -1 4.4 -1 1 C-0.67 0.67 -0.34 0.34 0 0 Z " transform="translate(52,42)" style="fill: #F3B000;"/><path d="M0 0 C0.95511978 -0.00315216 1.91023956 -0.00630432 2.89430237 -0.009552 C4.45663857 -0.00651566 4.45663857 -0.00651566 6.05053711 -0.00341797 C7.11775497 -0.00437469 8.18497284 -0.00533142 9.28453064 -0.00631714 C11.55182962 -0.00699953 13.81913053 -0.00514115 16.08642578 -0.00097656 C19.53870112 0.00433426 22.99084417 -0.00090047 26.44311523 -0.00732422 C28.64558948 -0.00666273 30.84806364 -0.0053801 33.05053711 -0.00341797 C34.07792496 -0.0054422 35.10531281 -0.00746643 36.16383362 -0.009552 C41.70872194 0.00833446 47.03014122 0.3079749 52.51538086 1.12939453 C53.14038086 3.50439453 53.14038086 3.50439453 53.51538086 6.12939453 C51.51538086 8.12939453 51.51538086 8.12939453 49.3605957 8.35644531 C48.49128418 8.34597168 47.62197266 8.33549805 46.72631836 8.32470703 C45.78530273 8.31826172 44.84428711 8.31181641 43.87475586 8.30517578 C42.88991211 8.28841797 41.90506836 8.27166016 40.89038086 8.25439453 C39.89780273 8.24537109 38.90522461 8.23634766 37.88256836 8.22705078 C35.42673698 8.20343702 32.97102912 8.16756523 30.51538086 8.12939453 C29.52538086 13.40939453 28.53538086 18.68939453 27.51538086 24.12939453 C29.35745117 24.10619141 31.19952148 24.08298828 33.09741211 24.05908203 C35.50756432 24.04032598 37.91772089 24.02212561 40.32788086 24.00439453 C41.54282227 23.98763672 42.75776367 23.97087891 44.00952148 23.95361328 C45.17290039 23.94716797 46.3362793 23.94072266 47.53491211 23.93408203 C49.14523315 23.91837158 49.14523315 23.91837158 50.78808594 23.90234375 C53.51538086 24.12939453 53.51538086 24.12939453 56.51538086 26.12939453 C56.02038086 28.60439453 56.02038086 28.60439453 55.51538086 31.12939453 C46.60538086 31.12939453 37.69538086 31.12939453 28.51538086 31.12939453 C30.75933879 37.86126832 31.84837556 40.80632232 35.51538086 46.12939453 C40.4450324 57.65555821 38.76752954 72.87746683 34.45288086 84.31689453 C29.35119541 96.93732948 21.89197057 106.45418731 12.51538086 116.12939453 C11.9778418 116.73396484 11.44030273 117.33853516 10.88647461 117.96142578 C8.6454418 119.87045373 6.32481144 119.3166899 3.51538086 119.12939453 C3.23803711 116.38330078 3.23803711 116.38330078 3.51538086 113.12939453 C5.38647461 111.03173828 5.38647461 111.03173828 7.95288086 109.06689453 C17.20147373 101.27240054 23.08253998 91.29875739 27.51538086 80.12939453 C27.82217773 79.38689453 28.12897461 78.64439453 28.44506836 77.87939453 C31.54794667 70.07787192 33.46355747 60.61824067 30.57397461 52.47705078 C28.25771721 47.76466504 25.49717303 43.37484088 22.43334961 39.11376953 C21.17947728 36.40327104 21.36974631 34.0753734 21.51538086 31.12939453 C20.91064941 31.18998047 20.30591797 31.25056641 19.68286133 31.31298828 C16.91899362 31.58815796 14.15470135 31.8588129 11.39038086 32.12939453 C10.43905273 32.22478516 9.48772461 32.32017578 8.50756836 32.41845703 C-1.75019829 33.4157399 -1.75019829 33.4157399 -5.48461914 33.12939453 C-7.48461914 31.12939453 -7.48461914 31.12939453 -7.73461914 28.12939453 C-7.48461914 25.12939453 -7.48461914 25.12939453 -5.48461914 23.12939453 C-2.77905273 22.99414062 -2.77905273 22.99414062 0.61694336 23.15283203 C1.82866211 23.20439453 3.04038086 23.25595703 4.28881836 23.30908203 C6.1953418 23.40576172 6.1953418 23.40576172 8.14038086 23.50439453 C9.41913086 23.56111328 10.69788086 23.61783203 12.01538086 23.67626953 C15.18258773 23.81808476 18.34904199 23.96952949 21.51538086 24.12939453 C21.5037793 23.39333984 21.49217773 22.65728516 21.48022461 21.89892578 C21.47120117 20.92310547 21.46217773 19.94728516 21.45288086 18.94189453 C21.4412793 17.97896484 21.42967773 17.01603516 21.41772461 16.02392578 C21.51051464 13.2736294 21.894264 10.80459862 22.51538086 8.12939453 C21.77376709 8.17539795 21.03215332 8.22140137 20.26806641 8.26879883 C16.9137381 8.467751 13.5585767 8.6425965 10.20288086 8.81689453 C9.03563477 8.88972656 7.86838867 8.96255859 6.66577148 9.03759766 C5.54750977 9.09238281 4.42924805 9.14716797 3.27709961 9.20361328 C2.24544678 9.26121826 1.21379395 9.31882324 0.15087891 9.37817383 C-2.48461914 9.12939453 -2.48461914 9.12939453 -4.32910156 7.78881836 C-5.92562689 5.49606901 -5.77182825 3.85788108 -5.48461914 1.12939453 C-3.88690323 -0.46832138 -2.21241745 0.00208521 0 0 Z " transform="translate(315.484619140625,49.87060546875)" style="fill: #F2B000;"/><path d="M0 0 C4.70588235 0.70588235 4.70588235 0.70588235 6 2 C6 3.98 6 5.96 6 8 C11.61 8 17.22 8 23 8 C23.33 6.35 23.66 4.7 24 3 C24.33 2.34 24.66 1.68 25 1 C25.99 1 26.98 1 28 1 C31.17561392 5.76342088 30.35970427 10.05013963 29.359375 15.47265625 C28.95589213 17.4168899 28.55230136 19.36110436 28.14453125 21.30444336 C24.46243688 39.0508232 25.79970183 57.18299297 27.75 75.0625 C27.9293857 76.769366 28.1087474 78.47623452 28.28808594 80.18310547 C29.63917558 92.78729061 31.40334124 105.28551919 33.69628906 117.75634766 C34.0263535 120.19468545 34.05096367 122.54235858 34 125 C32.02 125.495 32.02 125.495 30 126 C19.19727292 102.82937801 19.10429434 70.14610705 20 45 C19.20335938 45.03480469 18.40671875 45.06960937 17.5859375 45.10546875 C10.63326895 45.28309167 5.58416727 45.32815533 0.25 40.375 C-5.76957299 28.93781132 -3.68802575 13.12554681 -1 1 C-0.67 0.67 -0.34 0.34 0 0 Z " transform="translate(64,44)" style="fill: #F0AE00;"/><path d="M0 0 C4.44067619 0.5163577 7.24568155 1.6288515 11 4 C12.32471066 4.36610185 13.65756438 4.70545716 15 5 C15.04898437 6.25554687 15.09796875 7.51109375 15.1484375 8.8046875 C14.91882091 25.16352798 14.91882091 25.16352798 22 39 C22.99 39.66 23.98 40.32 25 41 C24.8125 43.25 24.8125 43.25 24 46 C23.21625 46.598125 22.4325 47.19625 21.625 47.8125 C16.39573228 52.1702231 15.15207597 60.58649344 13.3125 67 C13.08755859 67.77472656 12.86261719 68.54945313 12.63085938 69.34765625 C12.08446633 71.23096846 11.54183106 73.11537024 11 75 C10.67 74.34 10.34 73.68 10 73 C8.14375 73.0309375 8.14375 73.0309375 6.25 73.0625 C3.3359175 73.06766681 0.79046673 72.93015558 -2 72 C-2 70.68 -2 69.36 -2 68 C3.94 67.505 3.94 67.505 10 67 C9.67 65.68 9.34 64.36 9 63 C5.7 62.67 2.4 62.34 -1 62 C-1 61.01 -1 60.02 -1 59 C3.29 59 7.58 59 12 59 C12 57.35 12 55.7 12 54 C8.37 54 4.74 54 1 54 C0 52 0 52 1 49 C5.29 49 9.58 49 14 49 C14 48.01 14 47.02 14 46 C8.06 45.01 2.12 44.02 -4 43 C-3.67 42.34 -3.34 41.68 -3 41 C-0.4375 40.375 -0.4375 40.375 2 40 C2.36758552 37.00680365 2.62109285 34.90713209 2 32 C0.43586255 30.47907541 0.43586255 30.47907541 -1.5 29.125 C-4.43806999 26.5571746 -5.25561412 24.58733708 -5.640625 20.8046875 C-5.70511278 19.20400859 -5.74098399 17.60195205 -5.75 16 C-5.76482422 15.2280127 -5.77964844 14.45602539 -5.79492188 13.66064453 C-5.63603298 7.66258861 -3.82534819 4.58067172 0 0 Z " transform="translate(470,60)" style="fill: #0F0B00;"/><path d="M0 0 C0.99 0 1.98 0 3 0 C4 2 4 2 4 11 C10.93 11 17.86 11 25 11 C25 8.03 25 5.06 25 2 C25.33 1.34 25.66 0.68 26 0 C27.875 0.625 27.875 0.625 30 2 C33.74787954 10.81931095 33.33735041 23.00612348 30 32 C27.60677247 36.4563547 25.50705251 38.76241099 21 41 C15.88424161 41.83535802 10.46579851 42.18257684 5.703125 39.8984375 C0.21827485 35.51524529 -1.93303769 29.8229432 -3 23 C-3.18917649 19.99910578 -3.2304789 17.00624884 -3.25 14 C-3.270625 13.2059375 -3.29125 12.411875 -3.3125 11.59375 C-3.343364 6.96414993 -3.16814309 3.67149293 0 0 Z " transform="translate(45,91)" style="fill: #F3B100;"/><path d="M0 0 C1.32 0 2.64 0 4 0 C6.10732787 4.21465574 5.26787337 9.68488198 5.29516602 14.32128906 C5.31237939 16.36070992 5.35626835 18.39850883 5.40039062 20.4375 C5.40876953 21.72398437 5.41714844 23.01046875 5.42578125 24.3359375 C5.44036377 25.51720215 5.45494629 26.6984668 5.4699707 27.91552734 C4.90411397 31.62931124 3.97289554 32.77307948 1 35 C-2.25 35.75 -2.25 35.75 -5 36 C-5.23369491 40.50893718 -5.14124164 44.61602331 -4 49 C-1.57378491 51.61221114 0.82022129 53.35048719 3.84765625 55.21875 C6 57 6 57 6.30859375 59.71875 C6.20675781 60.4715625 6.10492188 61.224375 6 62 C0.9701448 61.48734168 -2.42358585 59.07719673 -6.5 56.3125 C-7.15097656 55.89033203 -7.80195313 55.46816406 -8.47265625 55.03320312 C-14.80700222 50.79111082 -18.94512151 46.56257033 -21 39 C-21.22705078 35.74853516 -21.22705078 35.74853516 -21.1953125 32.2890625 C-21.18886719 31.04511719 -21.18242187 29.80117187 -21.17578125 28.51953125 C-21.15902344 27.23433594 -21.14226562 25.94914062 -21.125 24.625 C-21.11597656 23.31660156 -21.10695312 22.00820312 -21.09765625 20.66015625 C-21.07415085 17.4399163 -21.04129087 14.22005293 -21 11 C-19.68 10.67 -18.36 10.34 -17 10 C-15.07916535 13.22711515 -14.79720265 15.48295286 -14.9453125 19.2109375 C-14.96980469 20.20867187 -14.99429688 21.20640625 -15.01953125 22.234375 C-15.08959101 24.32059896 -15.16765891 26.40657005 -15.25390625 28.4921875 C-15.27582031 29.4925 -15.29773438 30.4928125 -15.3203125 31.5234375 C-15.35398926 32.43013184 -15.38766602 33.33682617 -15.42236328 34.27099609 C-14.86170984 37.89353031 -13.16464286 40.09441403 -11 43 C-11.00785522 41.24357178 -11.00785522 41.24357178 -11.01586914 39.45166016 C-11.03393758 35.11686972 -11.04543879 30.78208263 -11.05493164 26.44726562 C-11.05996763 24.56933025 -11.06679671 22.6913988 -11.07543945 20.81347656 C-11.08753713 18.11782868 -11.09323557 15.42223253 -11.09765625 12.7265625 C-11.10281754 11.88380768 -11.10797882 11.04105286 -11.11329651 10.17276001 C-11.11387171 4.22774341 -11.11387171 4.22774341 -10 2 C-8.0625 2.375 -8.0625 2.375 -6 3 C-4.71394339 5.57211322 -4.78956059 7.56906966 -4.68359375 10.4453125 C-4.64169922 11.52167969 -4.59980469 12.59804687 -4.55664062 13.70703125 C-4.51732422 14.83496094 -4.47800781 15.96289062 -4.4375 17.125 C-4.39431641 18.26066406 -4.35113281 19.39632812 -4.30664062 20.56640625 C-4.2003396 23.37747768 -4.09830595 26.18863945 -4 29 C-0.61749974 25.61749974 -0.87200059 21.30172867 -0.68359375 16.69921875 C-0.64169922 15.72275391 -0.59980469 14.74628906 -0.55664062 13.74023438 C-0.51732422 12.73283203 -0.47800781 11.72542969 -0.4375 10.6875 C-0.39431641 9.66076172 -0.35113281 8.63402344 -0.30664062 7.57617188 C-0.20093175 5.05090431 -0.09883532 2.52554438 0 0 Z " transform="translate(188,108)" style="fill: #F3B000;"/><path d="M0 0 C3.96656456 1.32218819 4.347573 2.84290731 6.25 6.5 C8.88191738 11.96578883 9.9827626 16.16324258 8 22 C7.34 22.99 6.68 23.98 6 25 C4.1875 25.30078125 4.1875 25.30078125 2 25.3125 C-5.12479397 25.86409695 -10.51541273 29.99118476 -15.9375 34.375 C-18 36 -18 36 -21 36 C-20.93595893 32.79794673 -20.80622093 30.10646873 -18.8671875 27.4453125 C-13.24605356 22.21963522 -5.87749712 19.22412486 1 16 C1 14.68 1 13.36 1 12 C-6.4162348 11.22747554 -10.60772148 14.2673312 -16.25 18.8125 C-18 20 -18 20 -22 20 C-22.1182391 17.10314207 -22.10869977 15.62102758 -21 13 C-15.85427205 8.10275791 -9.30820218 4.94863815 -2.93359375 1.9453125 C-1.04189991 1.15012831 -1.04189991 1.15012831 0 0 Z " transform="translate(185,80)" style="fill: #F0AE00;"/><path d="M0 0 C2.6875 -0.3125 2.6875 -0.3125 6 0 C8.6875 2.25 8.6875 2.25 11 5 C11.5775 5.680625 12.155 6.36125 12.75 7.0625 C15.37281484 11.12786299 15.47607393 15.23926072 15 20 C13.7937849 23.11699509 12.34044287 25.60261205 10 28 C6.3125 29.125 6.3125 29.125 4.25390625 29.4375 C0.48666403 30.3776783 -2.49960809 32.62553532 -5.703125 34.7578125 C-8 36 -8 36 -12 36 C-12.39645522 31.53987873 -12.39645522 31.53987873 -10.671875 29.19140625 C-4.95015025 24.34189564 1.18793037 21.09949168 8 18 C7.35862998 12.7967728 5.09388615 10.65305338 1.49609375 7.0625 C-0.34118223 4.52964956 -0.29221919 3.0603319 0 0 Z " transform="translate(175,49)" style="fill: #F1AF00;"/><path d="M0 0 C3.50020422 0.3000175 4.94904191 0.95733741 7.6875 3.25 C11.15705913 7.37596221 12.07162617 9.49585045 11.8125 14.9375 C11.38079985 17.76460955 10.84042799 19.29361249 9.4375 21.875 C7.21010473 26.71716363 6.99506133 31.95630646 8.6796875 37.05859375 C9.42864649 38.71700295 10.21256492 40.35951024 11 42 C11 43.32 11 44.64 11 46 C8.75 46.375 8.75 46.375 6 46 C0.45873512 39.0734189 0.36666542 32.57597318 1 24 C1.70703125 21.8359375 1.70703125 21.8359375 2.5625 20.125 C4.36200062 16.21304213 4.08849228 14.12072078 3 10 C2.484375 9.319375 1.96875 8.63875 1.4375 7.9375 C-0.54270806 5.26852392 -0.22057267 3.23506583 0 0 Z " transform="translate(198,48)" style="fill: #F0AE00;"/><path d="M0 0 C2.1875 -0.4375 2.1875 -0.4375 5 0 C8.60827297 3.53651754 10.99569719 8.07891625 12 13 C11.78278551 17.56150427 11.32815728 20.30582114 9.375 24.4375 C7.63346359 28.94966251 7.78010341 32.3553567 9 37 C10.46771271 39.26454073 10.46771271 39.26454073 12 41 C12 42.32 12 43.64 12 45 C9.8125 45.4375 9.8125 45.4375 7 45 C2.45005761 40.3114167 0.71801734 35.58511623 0.765625 29.0390625 C1 27 1 27 2.5 24.0625 C4.52253187 19.93316409 4.72685035 16.52177426 4 12 C3.10840518 9.81154 2.09562342 7.8458763 0.875 5.82421875 C0 4 0 4 0 0 Z " transform="translate(210,47)" style="fill: #EEAD00;"/><path d="M0 0 C1.15224028 0.92961422 2.29659176 1.8690125 3.4375 2.8125 C4.07558594 3.33457031 4.71367187 3.85664062 5.37109375 4.39453125 C7.91908296 6.90585875 7.99815576 8.95183271 8.1328125 12.46875 C8.13546289 13.81249991 8.13267846 15.15626941 8.125 16.5 C8.12886719 17.17675781 8.13273438 17.85351562 8.13671875 18.55078125 C8.13062416 21.64073767 7.9844023 24.04679311 7 27 C6.45009919 33.59880977 7.56965293 36.42568602 11 42 C11 43.32 11 44.64 11 46 C9.02 46.495 9.02 46.495 7 47 C2.43850531 41.96662655 0.19990393 36.99855889 -0.25 30.25 C0 27 0 27 0.5 25.09765625 C2.17757687 18.05969703 1.00261973 12.38056694 -2 6 C-2.1875 3.0625 -2.1875 3.0625 -2 1 C-1.34 0.67 -0.68 0.34 0 0 Z " transform="translate(224,46)" style="fill: #EDAC00;"/><path d="M0 0 C0.33 0.99 0.66 1.98 1 3 C2.65 3 4.3 3 6 3 C6.33 2.01 6.66 1.02 7 0 C8.65 0.33 10.3 0.66 12 1 C12.77224537 12.72096861 12.77224537 12.72096861 10 17.3125 C5.8197607 19.66388461 3.75117361 19.76631832 -1 19 C-2.875 16.875 -2.875 16.875 -4 14 C-4.4125 13.05125 -4.825 12.1025 -5.25 11.125 C-6.14020593 7.4158086 -5.79955839 4.70704344 -5 1 C-4 0 -4 0 0 0 Z " transform="translate(444,68)" style="fill: #F3B000;"/><path d="M0 0 C2.0625 0.4375 2.0625 0.4375 4 1 C4 1.99 4 2.98 4 4 C5.98 4 7.96 4 10 4 C10 2.68 10 1.36 10 0 C11.32 0.33 12.64 0.66 14 1 C14.10854617 3.39706123 14.18753157 5.78915838 14.25 8.1875 C14.30027344 9.19780273 14.30027344 9.19780273 14.3515625 10.22851562 C14.42179621 13.82799314 14.08428247 15.85952921 12.21875 18.96875 C10 21 10 21 6.25 21.3125 C5.1775 21.209375 4.105 21.10625 3 21 C-1.71416393 14.66534222 -1.68420992 8.73942368 -1 1 C-0.67 0.67 -0.34 0.34 0 0 Z " transform="translate(469,67)" style="fill: #F3B000;"/><path d="M0 0 C6.27 0 12.54 0 19 0 C19 9 19 9 18.125 12.0625 C15.56743806 14.39439471 14.51839333 14.40090984 11.125 14.5625 C7.55740338 14.38542221 6.08530735 14.05048802 2.9375 12.1875 C-0.69954729 8.08115629 0 5.83006951 0 0 Z " transform="translate(50,110)" style="fill: #010100;"/><path d="M0 0 C2 1 2 1 3 3 C2.01 3 1.02 3 0 3 C0 16.86 0 30.72 0 45 C-5.95514689 39.04485311 -5.95514689 39.04485311 -6.09765625 35.72509766 C-6.08605469 34.79745605 -6.07445312 33.86981445 -6.0625 32.9140625 C-6.05476562 31.90085938 -6.04703125 30.88765625 -6.0390625 29.84375 C-6.01311563 27.70572801 -5.98707466 25.56770717 -5.9609375 23.4296875 C-5.94933594 21.90601563 -5.94933594 21.90601563 -5.9375 20.3515625 C-5.92589844 19.42166504 -5.91429687 18.49176758 -5.90234375 17.53369141 C-5.99253567 15.19366217 -6.3339032 13.23627577 -7 11 C-7.99 11 -8.98 11 -10 11 C-8.2620468 5.31215317 -4.78816742 3.19211161 0 0 Z " transform="translate(178,107)" style="fill: #0E0A00;"/><path d="M0 0 C8.25 0 16.5 0 25 0 C24 6 24 6 22 9 C19.30222975 9.41736804 16.9543447 9.61835987 14.25 9.625 C13.52296875 9.62806152 12.7959375 9.63112305 12.046875 9.63427734 C8.76203142 9.52493133 6.41711088 9.26171663 3.609375 7.5 C1.53068336 5.07822333 0 3.25920342 0 0 Z " transform="translate(205,150)" style="fill: #0C0800;"/><path d="M0 0 C1.084021 0.00523682 2.16804199 0.01047363 3.28491211 0.01586914 C5.03964844 0.02070313 5.03964844 0.02070313 6.82983398 0.02563477 C8.67738281 0.03820312 8.67738281 0.03820312 10.56225586 0.05102539 C12.41560547 0.05779297 12.41560547 0.05779297 14.30639648 0.06469727 C17.37089703 0.07652931 20.43530307 0.09301366 23.49975586 0.11352539 C24.62475586 4.86352539 24.62475586 4.86352539 23.49975586 7.11352539 C19.18726976 7.14239076 14.87480824 7.16027794 10.56225586 7.17602539 C9.33055664 7.1844043 8.09885742 7.1927832 6.82983398 7.20141602 C5.66000977 7.20463867 4.49018555 7.20786133 3.28491211 7.21118164 C1.65888062 7.21903687 1.65888062 7.21903687 0 7.22705078 C-2.50024414 7.11352539 -2.50024414 7.11352539 -3.50024414 6.11352539 C-3.62524414 3.61352539 -3.62524414 3.61352539 -3.50024414 1.11352539 C-2.50024414 0.11352539 -2.50024414 0.11352539 0 0 Z " transform="translate(206.500244140625,136.886474609375)" style="fill: #070500;"/><path d="M0 0 C4.68837061 5.53777345 4.86966668 10.38058716 4.73828125 17.40625 C3.87546585 21.606198 2.85633979 22.85813966 -0.5 25.4375 C-3.03125 26.99609375 -3.03125 26.99609375 -5 28 C-5.33 27.34 -5.66 26.68 -6 26 C-5.175 25.278125 -4.35 24.55625 -3.5 23.8125 C0.56948789 19.07813804 -0.60883479 12.85878565 -1 7 C-2.32 6.67 -3.64 6.34 -5 6 C-5.33 7.32 -5.66 8.64 -6 10 C-7.65 10 -9.3 10 -11 10 C-11.33 8.68 -11.66 7.36 -12 6 C-12.99 6 -13.98 6 -15 6 C-14 3 -14 3 -11.85546875 1.796875 C-10.97503906 1.45140625 -10.09460938 1.1059375 -9.1875 0.75 C-8.31480469 0.39421875 -7.44210937 0.0384375 -6.54296875 -0.328125 C-3.70543841 -1.0778258 -2.61235482 -1.33532133 0 0 Z " transform="translate(456,62)" style="fill: #161000;"/><path d="M0 0 C8.91 0 17.82 0 27 0 C27 2.31 27 4.62 27 7 C18.09 7 9.18 7 0 7 C0 4.69 0 2.38 0 0 Z " transform="translate(203,124)" style="fill: #000000;"/><path d="M0 0 C0.73669922 0.00064453 1.47339844 0.00128906 2.23242188 0.00195312 C7.67199096 0.04699096 7.67199096 0.04699096 8.8125 1.1875 C8.8125 3.8275 8.8125 6.4675 8.8125 9.1875 C1.8825 9.1875 -5.0475 9.1875 -12.1875 9.1875 C-12.1875 6.8775 -12.1875 4.5675 -12.1875 2.1875 C-8.36119529 -0.35332701 -4.41752166 -0.07460703 0 0 Z " transform="translate(43.1875,58.8125)" style="fill: #130E00;"/><path d="M0 0 C1 1 1 1 1.1328125 3.90625 C1.13023437 5.0921875 1.12765625 6.278125 1.125 7.5 C1.12757813 8.6859375 1.13015625 9.871875 1.1328125 11.09375 C1 14 1 14 0 15 C-1.85287502 15.07226502 -3.70833878 15.0838122 -5.5625 15.0625 C-6.57441406 15.05347656 -7.58632812 15.04445313 -8.62890625 15.03515625 C-9.41136719 15.02355469 -10.19382813 15.01195313 -11 15 C-11.34702934 11.2726478 -11.51864624 7.71607356 -11 4 C-7.60806449 0.60806449 -4.79458401 -0.68494057 0 0 Z " transform="translate(214,103)" style="fill: #070500;"/><path d="M0 0 C1.24910156 0.00386719 2.49820312 0.00773437 3.78515625 0.01171875 C6.9375 0.3125 6.9375 0.3125 8.9375 2.3125 C8.9375 4.6225 8.9375 6.9325 8.9375 9.3125 C2.6675 9.3125 -3.6025 9.3125 -10.0625 9.3125 C-10.0625 3.3125 -10.0625 3.3125 -9.00390625 1.45703125 C-6.0243539 -0.29952577 -3.42136092 -0.04599554 0 0 Z " transform="translate(500.0625,56.6875)" style="fill: #040300;"/><path d="M0 0 C5.94 0 11.88 0 18 0 C17.67 2.97 17.34 5.94 17 9 C11.06 9 5.12 9 -1 9 C-1 2 -1 2 0 0 Z " transform="translate(68,59)" style="fill: #080600;"/><path d="M0 0 C0.80566406 0.00322266 1.61132812 0.00644531 2.44140625 0.00976562 C3.70404297 0.02233398 3.70404297 0.02233398 4.9921875 0.03515625 C5.84167969 0.03966797 6.69117188 0.04417969 7.56640625 0.04882812 C9.66669659 0.06062751 11.7669508 0.07856319 13.8671875 0.09765625 C13.9921875 2.97265625 13.9921875 2.97265625 13.8671875 6.09765625 C11.51360499 8.45123876 10.93750356 8.37637529 7.734375 8.51171875 C6.52587891 8.56972656 6.52587891 8.56972656 5.29296875 8.62890625 C4.03033203 8.6753125 4.03033203 8.6753125 2.7421875 8.72265625 C1.46794922 8.78066406 1.46794922 8.78066406 0.16796875 8.83984375 C-1.93192934 8.93422119 -4.03234141 9.01703211 -6.1328125 9.09765625 C-6.1328125 6.45765625 -6.1328125 3.81765625 -6.1328125 1.09765625 C-3.8362755 -0.05061225 -2.54968083 -0.0179555 0 0 Z " transform="translate(38.1328125,73.90234375)" style="fill: #0B0800;"/><path d="M0 0 C0.33 0.33 0.66 0.66 1 1 C0.75 4.4375 0.75 4.4375 0 8 C-3.99275451 10.66183634 -7.3045543 10.83907784 -12 10 C-14.5625 7.75 -14.5625 7.75 -16 5 C-16 3.68 -16 2.36 -16 1 C-14.27111445 0.83044205 -12.54187557 0.66448486 -10.8125 0.5 C-9.84957031 0.4071875 -8.88664062 0.314375 -7.89453125 0.21875 C-5.24017969 0.01815123 -2.65960351 -0.11337564 0 0 Z " transform="translate(508,85)" style="fill: #060400;"/><path d="M0 0 C1 1 1 1 1.0625 4.5625 C1.041875 5.696875 1.02125 6.83125 1 8 C-1.79192205 8.05380578 -4.5828141 8.09357669 -7.375 8.125 C-8.1690625 8.14175781 -8.963125 8.15851563 -9.78125 8.17578125 C-11.85492015 8.19335473 -13.92883241 8.10335168 -16 8 C-16.66 7.34 -17.32 6.68 -18 6 C-17.625 3.375 -17.625 3.375 -17 1 C-15.10440036 0.83069605 -13.20850769 0.66467136 -11.3125 0.5 C-10.25675781 0.4071875 -9.20101563 0.314375 -8.11328125 0.21875 C-5.38672777 0.02717284 -2.73056533 -0.1180785 0 0 Z " transform="translate(508,72)" style="fill: #0E0A00;"/><path d="M0 0 C5.28 0 10.56 0 16 0 C16 2.97 16 5.94 16 9 C14.06318839 9.08107583 12.1254066 9.13922475 10.1875 9.1875 C9.10855469 9.22230469 8.02960938 9.25710937 6.91796875 9.29296875 C4 9 4 9 2.17578125 7.86328125 C1 6 1 6 0 0 Z " transform="translate(68,74)" style="fill: #0F0B00;"/><path d="M0 0 C1.8125 1.5 1.8125 1.5 3 3 C-0.78756477 6.61139896 -0.78756477 6.61139896 -3 8 C-5.875 7.8125 -5.875 7.8125 -8 7 C-8 3 -8 3 -6.8125 1.25 C-4.35741636 -0.44316113 -2.92473469 -0.4387102 0 0 Z " transform="translate(463,91)" style="fill: #0F0B00;"/><path d="M0 0 C2.97 0.33 5.94 0.66 9 1 C9 2.32 9 3.64 9 5 C6.36 4.67 3.72 4.34 1 4 C0.67 2.68 0.34 1.36 0 0 Z " transform="translate(452,126)" style="fill: #1D1500;"/><path d="M0 0 C2.97 0 5.94 0 9 0 C9 1.32 9 2.64 9 4 C6.03 3.67 3.06 3.34 0 3 C0 2.01 0 1.02 0 0 Z " transform="translate(454,117)" style="fill: #1F1600;"/><path d="M0 0 C1.98 0 3.96 0 6 0 C5.67 1.65 5.34 3.3 5 5 C3.35 4.67 1.7 4.34 0 4 C0 2.68 0 1.36 0 0 Z " transform="translate(445,77)" style="fill: #322400;"/><path d="M0 0 C1.65 0.33 3.3 0.66 5 1 C5 2.32 5 3.64 5 5 C3.35 5 1.7 5 0 5 C-1 2 -1 2 0 0 Z " transform="translate(459,107)" style="fill: #110C00;"/><path d="M0 0 C1.65 0 3.3 0 5 0 C4.67 1.65 4.34 3.3 4 5 C2.68 4.34 1.36 3.68 0 3 C0 2.01 0 1.02 0 0 Z " transform="translate(473,77)" style="fill: #0E0A00;"/></svg>